<svg width="285" height="309" xmlns="http://www.w3.org/2000/svg"><g fill="none" fill-rule="evenodd"><circle fill="#E5F1FF" cx="139" cy="139" r="139"/><g fill="#1A191A" fill-rule="nonzero"><path d="M41 291h244v18H41v-18zm4 4v10h236v-10H45z"/><path d="M152 46h22v249h-22V46zm4 4v241h14V50h-14z"/><path d="M113 152h43v15h-43v-15zm4 4v7h35v-7h-35zm6-62h33v14h-33V94zm4 4v6h25v-6h-25zm4-29h25v14h-25V69zm4 4v6h17v-6h-17zm35 79h43v15h-43v-15zm4 4v7h35v-7h-35zm-4-62h33v14h-33V94zm4 4v6h25v-6h-25zm-4-29h25v14h-25V69zm4 4v6h17v-6h-17z"/><path d="M203 163h4v132h-4V163zm2 2l2 2h-4l2-2zm-70 25h4v105h-4V190zm2 2l2 2h-4l2-2zm-7-88h4v52h-4v-52zm4 4h-4l2-2 2 2zm2-29h4v19h-4V79zm4 4h-4l2-2 2 2zm52 21h4v52h-4v-52zm2 2l2 2h-4l2-2zm-6-27h4v19h-4V79zm4 4h-4l2-2 2 2zm-5 107h4v105h-4V190zm2 2l2 2h-4l2-2zM161 3h4v36h-4V3zm2 2l2 2h-4l2-2zm65 66h29v4h-29v-4zm27 2l-2 2v-4l2 2zM69 71h29v4H69v-4zm27 2l-2 2v-4l2 2zm152 60h29v4h-29v-4zm25 4v-4l2 2-2 2zm-224-4h29v4H49v-4zm27 2l-2 2v-4l2 2zm93-118h4v22h-4V17zm2 2l2 2h-4l2-2zm-18-2h4v22h-4V17zm2 2l2 2h-4l2-2zm-36 144h4v132h-4V163zm2 2l2 2h-4l2-2zm31-119h22v20h-22V46zm4 4v12h14V50h-14z"/></g></g></svg>