<svg width="400" height="300" xmlns="http://www.w3.org/2000/svg"><g fill="none" fill-rule="evenodd"><circle fill="#E4FDF6" cx="143" cy="127" r="127"/><g fill="#1A191A" fill-rule="nonzero"><path d="M0 282h400v18H0v-18zm4 4v10h392v-10H4zm91-65h210v4H95v-4zm208 2l-2 2v-4l2 2zM187 69h26v25h-26V69zm4 4v17h18V73h-18z"/><path d="M159 55h82v18h-82V55zm4 4v10h74V59h-74z"/><path d="M165 69h26v25h-26V69zm4 4v17h18V73h-18zm40-4h26v25h-26V69zm4 4v17h18V73h-18zM109 176h182v4H109v-4zm180 2l-2 2v-4l2 2zm-89 11l19.467 7.487A10.192 10.192 0 0 1 226 206v5a2 2 0 0 1-2 2h-48a2 2 0 0 1-2-2v-5c0-4.217 2.597-7.999 6.533-9.513L200 189zm-18.03 11.22A6.192 6.192 0 0 0 178 206v3h44v-3a6.192 6.192 0 0 0-3.97-5.78L200 193.287l-18.03 6.935zM200 146l16.582 6.58a7 7 0 0 1 4.418 6.507V164a2 2 0 0 1-2 2h-38a2 2 0 0 1-2-2v-4.913a7 7 0 0 1 4.418-6.507L200 146zm-15.107 10.298a3 3 0 0 0-1.893 2.789V162h34v-2.913a3 3 0 0 0-1.893-2.789L200 150.303l-15.107 5.995zM200 102l13.825 5.422a5 5 0 0 1 3.175 4.655V116a2 2 0 0 1-2 2h-30a2 2 0 0 1-2-2v-3.923a5 5 0 0 1 3.175-4.655L200 102zm-12.365 9.146a1 1 0 0 0-.635.93V114h26v-1.923a1 1 0 0 0-.635-.931L200 106.296l-12.365 4.85zM200 16l20.654 9.805A21.617 21.617 0 0 1 233 45.333V57a2 2 0 0 1-2 2h-62a2 2 0 0 1-2-2V45.333a21.617 21.617 0 0 1 12.346-19.528L200 16zm-18.939 13.419A17.617 17.617 0 0 0 171 45.333V55h58v-9.667a17.617 17.617 0 0 0-10.061-15.914L200 20.428l-18.939 8.99zM108 221h63v65h-63v-65zm4 4v57h55v-57h-55zm117-4h63v65h-63v-65zm4 4v57h55v-57h-55z"/><path d="M108 250h63v4h-63v-4zm59 4v-4l2 2-2 2zm-44 5h4v27h-4v-27zm4 4h-4l2-2 2 2zm-12-63h4v25h-4v-25zm2 2l2 2h-4l2-2zm-22-2h4v25h-4v-25zm2 2l2 2h-4l2-2zm28-47h4v25h-4v-25zm2 2l2 2h-4l2-2zm110 43h4v25h-4v-25zm4 4h-4l2-2 2 2zm-14-49h4v25h-4v-25zm4 4h-4l2-2 2 2zm-4-48h4v25h-4v-25zm4 4h-4l2-2 2 2zm18-4h4v25h-4v-25zm4 4h-4l2-2 2 2zm-108-4h4v25h-4v-25zm4 4h-4l2-2 2 2zm-12 85h4v25h-4v-25zm2 2l2 2h-4l2-2zm8-47h4v25h-4v-25zm2 2l2 2h-4l2-2z"/><path d="M125 155h4v25h-4v-25zm2 2l2 2h-4l2-2zm18-46h4v25h-4v-25zm4 4h-4l2-2 2 2z"/><path d="M145 111h40v4h-40v-4zm38 2l-2 2v-4l2 2zm30-2h40v4h-40v-4zm38 2l-2 2v-4l2 2zM151 90h98v4h-98v-4zm96 2l-2 2v-4l2 2z"/><path d="M151 90h4v25h-4V90zm4 4h-4l2-2 2 2zm90-4h4v25h-4V90zm2 2l2 2h-4l2-2zm12 108h4v25h-4v-25zm2 2l2 2h-4l2-2zm-12-47h4v25h-4v-25zm4 4h-4l2-2 2 2zm18-4h4v25h-4v-25zm4 4h-4l2-2 2 2zm-14-27h4v27h-4v-27zm4 4h-4l2-2 2 2zm-130-4h4v27h-4v-27zm2 2l2 2h-4l2-2z"/><path d="M135 132h130v4H135v-4zm128 2l-2 2v-4l2 2zm24 42h4v28h-4v-28zm4 4h-4l2-2 2 2zm-182-4h4v28h-4v-28zm2 2l2 2h-4l2-2z"/><path d="M249 111h4v25h-4v-25zm4 4h-4l2-2 2 2zm-94 85h4v25h-4v-25zm2 2l2 2h-4l2-2zm8-47h4v25h-4v-25zm2 2l2 2h-4l2-2zm-2-46h4v25h-4v-25zm2 2l2 2h-4l2-2zm110 87h4v25h-4v-25zm4 4h-4l2-2 2 2z"/><path d="M223 200h82v4h-82v-4zm80 2l-2 2v-4l2 2zm-208-2h82v4H95v-4zm80 2l-2 2v-4l2 2z"/><path d="M301 200h4v25h-4v-25zm4 4h-4l2-2 2 2zm-34-49h4v25h-4v-25zm4 4h-4l2-2 2 2z"/><path d="M218 155h57v4h-57v-4zm53 4v-4l2 2-2 2zm-146-4h57v4h-57v-4zm55 2l-2 2v-4l2 2zm63 102h4v27h-4v-27zm2 2l2 2h-4l2-2zM181 40h4v9h-4v-9zm2 2l2 2h-4l2-2zm9-2h4v9h-4v-9zm2 2l2 2h-4l2-2zm21-2h4v9h-4v-9zm4 4h-4l2-2 2 2zm-15-4h4v9h-4v-9zm4 4h-4l2-2 2 2zm-55 215h4v27h-4v-27zm2 2l2 2h-4l2-2zm118-2h4v27h-4v-27zm2 2l2 2h-4l2-2zm-137-2h4v27h-4v-27zm4 4h-4l2-2 2 2zm116-4h4v27h-4v-27zm4 4h-4l2-2 2 2zm-33-13h63v4h-63v-4zm61 2l-2 2v-4l2 2z"/></g></g></svg>