<svg width="400" height="323" xmlns="http://www.w3.org/2000/svg"><g fill="none" fill-rule="evenodd"><circle fill="#E5F1FF" cx="256" cy="144" r="144"/><g fill="#1A191A"><path d="M0 305h362v18H0v-18zm4 4v10h354v-10H4z" fill-rule="nonzero"/><path d="M113 217h136v92H113v-92zm4 4v84h128v-84H117z" fill-rule="nonzero"/><path d="M180 247c7.732 0 14 6.268 14 14v30h-28v-30c0-7.732 6.268-14 14-14zm10 40v-26c0-5.523-4.477-10-10-10s-10 4.477-10 10v26h20zm28-40c7.732 0 14 6.268 14 14v30h-28v-30c0-7.732 6.268-14 14-14zm10 40v-26c0-5.523-4.477-10-10-10s-10 4.477-10 10v26h20z" fill-rule="nonzero"/><g fill-rule="nonzero"><path d="M245 200h103v109H245V200zm4 4v101h95V204h-95z"/><path d="M296.5 237c7.456 0 13.5 6.044 13.5 13.5V272h-27v-21.5c0-7.456 6.044-13.5 13.5-13.5zm9.5 31v-17.5a9.5 9.5 0 0 0-19 0V268h19zm41.5-31c-.333 3.333-.5 15-.5 35h-13v-21.5c0-7.456 6.044-13.5 13.5-13.5zm0 4a9.5 9.5 0 0 0-9.5 9.5V268h9c0-14 .167-23 .5-27zm-102-4c7.456 0 13.5 6.044 13.5 13.5V272h-13c0-18-.167-29.667-.5-35zm9.5 31v-17.5a9.5 9.5 0 0 0-9.5-9.5c1 4.667 1.167 13.667.5 27h9z"/><path d="M267 200h59v109h-59V200zm4 4v101h51V204h-51z"/><path d="M297 179c6.075 0 11 4.925 11 11v14h-22v-14c0-6.075 4.925-11 11-11zm7 21v-10a7 7 0 0 0-14 0v10h14z"/><path d="M315 179c6.075 0 11 4.925 11 11v14h-22v-14c0-6.075 4.925-11 11-11zm7 21v-10a7 7 0 0 0-14 0v10h14zm-61-21c6.075 0 11 4.925 11 11v14h-22v-14c0-6.075 4.925-11 11-11zm7 21v-10a7 7 0 0 0-14 0v10h14z"/><path d="M333 179c6.075 0 11 4.925 11 11v14h-22v-14c0-6.075 4.925-11 11-11zm7 21v-10a7 7 0 0 0-14 0v10h14zm-61-21c6.075 0 11 4.925 11 11v14h-22v-14c0-6.075 4.925-11 11-11zm7 21v-10a7 7 0 0 0-14 0v10h14z"/></g><g fill-rule="nonzero"><path d="M14 200h103v109H14V200zm4 4v101h95V204H18z"/><path d="M65.5 237c7.456 0 13.5 6.044 13.5 13.5V272H52v-21.5c0-7.456 6.044-13.5 13.5-13.5zm9.5 31v-17.5a9.5 9.5 0 0 0-19 0V268h19zm41.5-31c-1 2.667-1.167 14.333-.5 35h-13v-21.5c0-7.456 6.044-13.5 13.5-13.5zm0 4a9.5 9.5 0 0 0-9.5 9.5V268h9c0-16.667.167-25.667.5-27zm-102-4c7.456 0 13.5 6.044 13.5 13.5V272H15c.667-20.667.5-32.333-.5-35zm9.5 31v-17.5a9.5 9.5 0 0 0-9.5-9.5c1 4 1.167 13 .5 27h9z"/><path d="M36 200h59v109H36V200zm4 4v101h51V204H40z"/><path d="M66 179c6.075 0 11 4.925 11 11v14H55v-14c0-6.075 4.925-11 11-11zm7 21v-10a7 7 0 0 0-14 0v10h14z"/><path d="M84 179c6.075 0 11 4.925 11 11v14H73v-14c0-6.075 4.925-11 11-11zm7 21v-10a7 7 0 0 0-14 0v10h14zm-61-21c6.075 0 11 4.925 11 11v14H19v-14c0-6.075 4.925-11 11-11zm7 21v-10a7 7 0 0 0-14 0v10h14z"/><path d="M102 179c6.075 0 11 4.925 11 11v14H91v-14c0-6.075 4.925-11 11-11zm7 21v-10a7 7 0 0 0-14 0v10h14zm-61-21c6.075 0 11 4.925 11 11v14H37v-14c0-6.075 4.925-11 11-11zm7 21v-10a7 7 0 0 0-14 0v10h14z"/></g><path d="M142 247c7.732 0 14 6.268 14 14v30h-28v-30c0-7.732 6.268-14 14-14zm10 40v-26c0-5.523-4.477-10-10-10s-10 4.477-10 10v26h20z" fill-rule="nonzero"/><g fill-rule="nonzero"><path d="M181 196c6.627 0 12 5.373 12 12v13h-24v-13c0-6.627 5.373-12 12-12zm8 21v-9a8 8 0 1 0-16 0v9h16z"/><path d="M201 196c6.627 0 12 5.373 12 12v13h-24v-13c0-6.627 5.373-12 12-12zm8 21v-9a8 8 0 1 0-16 0v9h16zm-68-21c6.627 0 12 5.373 12 12v13h-24v-13c0-6.627 5.373-12 12-12zm8 21v-9a8 8 0 1 0-16 0v9h16z"/><path d="M221 196c6.627 0 12 5.373 12 12v13h-24v-13c0-6.627 5.373-12 12-12zm8 21v-9a8 8 0 1 0-16 0v9h16zm-68-21c6.627 0 12 5.373 12 12v13h-24v-13c0-6.627 5.373-12 12-12zm8 21v-9a8 8 0 1 0-16 0v9h16z"/></g><path d="M122 166h4v55h-4v-55zm4 4h-4l2-2 2 2zm-11-36h18l-4 32h-10l-4-32zm7.531 28h2.938l3-24h-8.938l3 24zM236 166h4v55h-4v-55zm2 2l2 2h-4l2-2zm-9-34h18l-4 32h-10l-4-32zm4.531 4l3 24h2.938l3-24h-8.938z" fill-rule="nonzero"/><path d="M226 138h24c0-7.333-4-14.333-12-21-8 6.667-12 13.667-12 21zm12-15.641c4.033 3.876 6.498 7.75 7.492 11.641h-14.984c.994-3.891 3.459-7.765 7.492-11.641zM112 138h24c0-7.333-4-14.333-12-21-8 6.667-12 13.667-12 21zm12-15.641c4.033 3.876 6.498 7.75 7.492 11.641h-14.984c.994-3.891 3.459-7.765 7.492-11.641zM38 148h55v37h4v-41H34v39h4z" fill-rule="nonzero"/><path fill-rule="nonzero" d="M38 158h55v27h4v-31H34v29h4zm231-10h55v37h4v-41h-63v39h4z"/><path fill-rule="nonzero" d="M269 158h55v27h4v-31h-63v29h4zm-6.5-23h.25a4.563 4.563 0 0 0 4.334-3.137l1.641-4.988a34.297 34.297 0 0 1 11.757-16.536L295.98 98.5l16.067 11.875a35.847 35.847 0 0 1 12.33 16.435l1.944 5.277a4.454 4.454 0 0 0 3.965 2.909l.447.01A6.5 6.5 0 0 1 337 141.5v.5a6 6 0 0 1-6 6h-69a6 6 0 0 1-6-6v-.5a6.5 6.5 0 0 1 6.5-6.5zm33.52-31.498l-13.109 10.016a30.297 30.297 0 0 0-10.386 14.607l-1.64 4.988A8.563 8.563 0 0 1 262.75 139h-.25a2.5 2.5 0 0 0-2.5 2.5v.5a2 2 0 0 0 2 2h69a2 2 0 0 0 2-2v-.5a2.5 2.5 0 0 0-2.336-2.495l-.443-.01a8.454 8.454 0 0 1-7.653-5.526l-1.945-5.278a31.847 31.847 0 0 0-10.953-14.6l-13.65-10.09z"/><path d="M296 95a2 2 0 0 1 2 2v3h-4v-3a2 2 0 0 1 2-2z"/><path d="M31.5 135h.25a4.563 4.563 0 0 0 4.334-3.137l1.641-4.988a34.297 34.297 0 0 1 11.757-16.536L64.98 98.5l16.067 11.875a35.847 35.847 0 0 1 12.33 16.435l1.944 5.277a4.454 4.454 0 0 0 3.965 2.909l.447.01A6.5 6.5 0 0 1 106 141.5v.5a6 6 0 0 1-6 6H31a6 6 0 0 1-6-6v-.5a6.5 6.5 0 0 1 6.5-6.5zm33.52-31.498l-13.11 10.016a30.297 30.297 0 0 0-10.386 14.607l-1.64 4.988A8.563 8.563 0 0 1 31.75 139h-.25a2.5 2.5 0 0 0-2.5 2.5v.5a2 2 0 0 0 2 2h69a2 2 0 0 0 2-2v-.5a2.5 2.5 0 0 0-2.336-2.495l-.443-.01a8.454 8.454 0 0 1-7.653-5.526l-1.945-5.278a31.847 31.847 0 0 0-10.953-14.6L65.02 103.5z" fill-rule="nonzero"/><path d="M65 95a2 2 0 0 1 2 2v3h-4v-3a2 2 0 0 1 2-2z"/></g></g></svg>