<svg width="400" height="312" xmlns="http://www.w3.org/2000/svg"><g fill="none" fill-rule="evenodd"><circle fill="#FFF5E4" cx="261" cy="139" r="139"/><g fill="#1A191A" fill-rule="nonzero"><path d="M0 294h341v18H0v-18zm4 4v10h333v-10H4zm76-157h28v33H80v-33zm4 4v25h20v-25H84zm-4-61h28v31H80V84zm4 4v23h20V88H84zm149 53h28v33h-28v-33zm4 4v25h20v-25h-20zm-4-61h28v31h-28V84zm4 4v23h20V88h-20z"/><path d="M70 170h48v34c0 7.732-6.268 14-14 14H84c-7.732 0-14-6.268-14-14v-34zm4 4v30c0 5.523 4.477 10 10 10h20c5.523 0 10-4.477 10-10v-30H74zm56 10h20v20h-20v-20zm4 4v12h12v-12h-12zm58-4h20v20h-20v-20zm4 4v12h12v-12h-12zm-35-4h20v20h-20v-20zm4 4v12h12v-12h-12zm-4-67h18v25h-18v-25zm4 4v17h10v-17h-10zm24-4h18v25h-18v-25zm4 4v17h10v-17h-10zm-60-4h18v25h-18v-25zm4 4v17h10v-17h-10z"/><path d="M119 121h18v25h-18v-25zm4 4v17h10v-17h-10z"/><path d="M116 121h7v25h-18c5.283-4.188 8.616-7.855 10-11 1.384-3.145 1.717-7.812 1-14zm-7 21h10v-17h-3c.117 5.43-.217 9.097-1 11-.783 1.903-2.783 3.903-6 6zm66-21h18v25h-18v-25zm4 4v17h10v-17h-10zm24-4h18v25h-18v-25zm4 4v17h10v-17h-10z"/><path d="M217 121h7c.062 7.11.729 12.11 2 15 1.271 2.89 4.271 6.223 9 10h-18v-25zm4 4v17h10c-2.514-2.01-4.18-4.01-5-6-.82-1.99-1.486-5.657-2-11h-3zm-74-4h18v25h-18v-25zm4 4v17h10v-17h-10zm-81-14h48v20c0 7.732-6.268 14-14 14H84c-7.732 0-14-6.268-14-14v-20zm4 4v16c0 5.523 4.477 10 10 10h20c5.523 0 10-4.477 10-10v-16H74z"/><path d="M223 111h48v20c0 7.732-6.268 14-14 14h-20c-7.732 0-14-6.268-14-14v-20zm4 4v16c0 5.523 4.477 10 10 10h20c5.523 0 10-4.477 10-10v-16h-40zm20-69l19.558 20.536a18.046 18.046 0 0 1 4.942 13.589A8.408 8.408 0 0 1 263.11 88h-32.22a8.408 8.408 0 0 1-8.39-7.875 18.046 18.046 0 0 1 4.942-13.59L247 46zm0 5.8l-16.661 17.495a14.046 14.046 0 0 0-3.847 10.577A4.408 4.408 0 0 0 230.891 84h32.218a4.408 4.408 0 0 0 4.399-4.128 14.046 14.046 0 0 0-3.847-10.577L247 51.8z"/><path d="M228.25 65.688L247 46l18.75 19.688h-37.5zm9.333-4h18.834L247 51.8l-9.417 9.887zM94 46l19.558 20.536a18.046 18.046 0 0 1 4.942 13.589A8.408 8.408 0 0 1 110.11 88H77.89a8.408 8.408 0 0 1-8.39-7.875 18.046 18.046 0 0 1 4.942-13.59L94 46zm0 5.8L77.339 69.295a14.046 14.046 0 0 0-3.847 10.577A4.408 4.408 0 0 0 77.891 84h32.218a4.408 4.408 0 0 0 4.399-4.128 14.046 14.046 0 0 0-3.847-10.577L94 51.8z"/><path d="M75.25 65.688L94 46l18.75 19.688h-37.5zm9.333-4h18.834L94 51.8l-9.417 9.887zM82 126h24v4H82v-4zm20 4v-4l2 2-2 2zm133-4h24v4h-24v-4zm22 2l-2 2v-4l2 2zm-34 42h48v34c0 7.732-6.268 14-14 14h-20c-7.732 0-14-6.268-14-14v-34zm4 4v30c0 5.523 4.477 10 10 10h20c5.523 0 10-4.477 10-10v-30h-40zM80 214h16v84H80v-84zm4 4v76h8v-76h-8z"/><path d="M233 214h16v84h-16v-84zm4 4v76h8v-76h-8zm-89.026 13.583L171 217l22.22 14.558a15 15 0 0 1 6.78 12.547V298h-59v-53.745a15 15 0 0 1 6.974-12.672zm2.14 3.38a11 11 0 0 0-5.114 9.292V294h51v-49.895a11 11 0 0 0-4.972-9.201l-20.065-13.146-20.849 13.204zM92 214h16v84H92v-84zm4 4v76h8v-76h-8z"/><path d="M245 214h16v84h-16v-84zm4 4v76h8v-76h-8zM82 200h24v4H82v-4zm22 2l-2 2v-4l2 2zm131-2h24v4h-24v-4zm22 2l-2 2v-4l2 2zm-143-32h111v4H114v-4zm107 4v-4l2 2-2 2zm-139 8h4v8h-4v-8zm2 2l2 2-2 2-2-2 2-2zm151-2h4v8h-4v-8zm4 4l-2 2-2-2 2-2 2 2zm-137-4h4v8h-4v-8zm2 2l2 2-2 2-2-2 2-2zm151-2h4v8h-4v-8zm2 2l2 2-2 2-2-2 2-2zm-165-2h4v8h-4v-8zm2 2l2 2-2 2-2-2 2-2zm-2-90h4v10h-4V94zm2 2l2 2h-4l2-2zm151 86h4v8h-4v-8zm4 4l-2 2-2-2 2-2 2 2zm-4-92h4v10h-4V94zm2 2l2 2h-4l2-2z"/></g></g></svg>