<svg width="400" height="317" xmlns="http://www.w3.org/2000/svg"><g fill="none" fill-rule="evenodd"><circle fill="#F7EAF1" cx="147.5" cy="132.5" r="132.5"/><g fill="#1A191A" fill-rule="nonzero"><path d="M22 231h367v18H22v-18zm4 4v10h359v-10H26z"/><path d="M198 90l8.707 33.793L186 235h-15l27-145zm3.324 4l-25.51 137h6.862l21.12-113.425L201.325 94z"/><path d="M198 90h15l27 145h-15L198 90zm4.814 4l25.51 137h6.862l-25.51-137h-6.862zM0 271h400v4H0v-4zm396 4v-4l2 2-2 2zM58 290h45v4H58v-4zm41 4v-4l2 2-2 2zm-16 19h45v4H83v-4zm41 4v-4l2 2-2 2zm46-27h44v4h-44v-4zm40 4v-4l2 2-2 2zm-15 19h44v4h-44v-4zm42 2l-2 2v-4l2 2zm38-25h44v4h-44v-4zm42 2l-2 2v-4l2 2z"/><path d="M209 90h4l50 145h-4L209 90zm4 4h-2.852l-.374-1.085.574-.806L213 94zm-13-4h4L77 235h-4L200 90zM75.186 231H77l-3.009 1.365L75.186 231z"/><path d="M208 90h4l76 145h-4L208 90zm4 4h-2.42l-.733-1.4.225-.371L212 94zm-13-4h4L102 235h-4L199 90zm3.181 2.432L201.089 94H199l3.143-1.641.038.073z"/><path d="M208 90h4l101 145h-4L208 90zm4 4h-2.089l-1.092-1.568.038-.073L212 94zm-13-4h4l-76 145h-4l76-145zm3.153 2.6l-.733 1.4H199l2.928-1.771.225.371z"/><path d="M207 90h4l127 145h-4L207 90zm.991 2.635L211 94h-1.814l-1.195-1.365zM198 90h4l-50 145h-4l50-145zm3.226 2.915L200.852 94H198l2.652-1.89.574.805zM300 313h44v4h-44v-4zm40 4v-4l2 2-2 2zm19-72h15v30h-15v-30zm4 4v22h7v-22h-7zm-301-4h15v30H62v-30zm4 4v22h7v-22h-7zm159-4h15v30h-15v-30zm4 4v22h7v-22h-7z"/><path d="M198 60h15v34h-15V60zm4 4v26h7V64h-7zm132 181h15v30h-15v-30zm4 4v22h7v-22h-7zm-301-4h15v30H37v-30zm4 4v22h7v-22h-7zm129-4h15v30h-15v-30zm4 4v22h7v-22h-7z"/></g></g></svg>