<svg width="393" height="335" xmlns="http://www.w3.org/2000/svg"><g fill="none" fill-rule="evenodd"><circle fill="#F7EAF1" cx="139" cy="139" r="139"/><path d="M273 75v10h30v15h-30v10h15v8h6v-8h20v8h6v-8h20v8h6v-8h20v12h-1v25h-5v151h7v19h26v18H22v-18h26v-19h7V147h-5v-25h-1v-12h20v8h6v-8h20v8h6v-8h20v8h6v-8h15v-10h-30V85h30V75h131zm116 246H26v10h363v-10zm-26-19h-90v15h90v-15zm-94 0H146v15h123v-15zm-127 0H52v15h90v-15zm109.5 5v4h-88v-4h88zm-43.538-96.566l-10.245 4.796a16 16 0 0 0-9.217 14.49V298h38v-68.516a16 16 0 0 0-8.973-14.374l-9.565-4.676zM356 147h-83v151h83V147zm-214 0H59v151h83V147zm127-47H146v198h38.5v-68.28a20 20 0 0 1 11.521-18.113L208 206l11.284 5.517a20 20 0 0 1 11.216 17.967V298H269V100zm-94.5 115a5 5 0 1 1 0 10 5 5 0 0 1 0-10zm66 0a5 5 0 1 1 0 10 5 5 0 0 1 0-10zm0 4a1 1 0 1 0 0 2 1 1 0 0 0 0-2zm-66 0a1 1 0 1 0 0 2 1 1 0 0 0 0-2zM309 176v20h-4v-20h4zm13 0v20h-4v-20h4zm13 0v20h-4v-20h4zm13 0v20h-4v-20h4zm-277 0v20h-4v-20h4zm13 0v20h-4v-20h4zm13 0v20h-4v-20h4zm13 0v20h-4v-20h4zm109.5 7v12h-4v-12h4zm20 0v12h-4v-12h4zm20 0v12h-4v-12h4zm-60 0v12h-4v-12h4zm-20 0v12h-4v-12h4zm-20 0v12h-4v-12h4zm48-37a7.5 7.5 0 0 1 7.5 7.5V168h-15v-14.5a7.5 7.5 0 0 1 7.5-7.5zm42 0a7.5 7.5 0 0 1 7.5 7.5V168h-15v-14.5a7.5 7.5 0 0 1 7.5-7.5zm-84 0a7.5 7.5 0 0 1 7.5 7.5V168h-15v-14.5a7.5 7.5 0 0 1 7.5-7.5zm21 0a7.5 7.5 0 0 1 7.5 7.5V168h-15v-14.5a7.5 7.5 0 0 1 7.5-7.5zm42 0a7.5 7.5 0 0 1 7.5 7.5V168h-15v-14.5a7.5 7.5 0 0 1 7.5-7.5zm-21 4a3.5 3.5 0 0 0-3.5 3.5V164h7v-10.5a3.5 3.5 0 0 0-3.5-3.5zm-42 0a3.5 3.5 0 0 0-3.5 3.5V164h7v-10.5a3.5 3.5 0 0 0-3.5-3.5zm21 0a3.5 3.5 0 0 0-3.5 3.5V164h7v-10.5a3.5 3.5 0 0 0-3.5-3.5zm42 0a3.5 3.5 0 0 0-3.5 3.5V164h7v-10.5a3.5 3.5 0 0 0-3.5-3.5zm21 0a3.5 3.5 0 0 0-3.5 3.5V164h7v-10.5a3.5 3.5 0 0 0-3.5-3.5zM361 122h-88v21h88v-21zm-219 0H54v21h88v-21zm-14 3a6 6 0 0 1 6 6v9h-12v-9a6 6 0 0 1 6-6zm159 0a6 6 0 0 1 6 6v9h-12v-9a6 6 0 0 1 6-6zm30 0a6 6 0 0 1 6 6v9h-12v-9a6 6 0 0 1 6-6zm30 0a6 6 0 0 1 6 6v9h-12v-9a6 6 0 0 1 6-6zm-279 0a6 6 0 0 1 6 6v9H62v-9a6 6 0 0 1 6-6zm30 0a6 6 0 0 1 6 6v9H92v-9a6 6 0 0 1 6-6zm0 4a2 2 0 0 0-2 2v5h4v-5a2 2 0 0 0-2-2zm189 0a2 2 0 0 0-2 2v5h4v-5a2 2 0 0 0-2-2zm30 0a2 2 0 0 0-2 2v5h4v-5a2 2 0 0 0-2-2zm30 0a2 2 0 0 0-2 2v5h4v-5a2 2 0 0 0-2-2zm-279 0a2 2 0 0 0-2 2v5h4v-5a2 2 0 0 0-2-2zm179.5-21c6.627 0 12 5.373 12 12v16h-104v-16c0-6.627 5.373-12 12-12 4.174 0 7.85 2.131 10 5.365a11.985 11.985 0 0 1 10-5.365c4.174 0 7.85 2.131 10 5.365a11.985 11.985 0 0 1 10-5.365c4.174 0 7.85 2.131 10 5.365a11.985 11.985 0 0 1 10-5.365c4.174 0 7.85 2.131 10 5.365a11.985 11.985 0 0 1 10-5.365zM128 129a2 2 0 0 0-2 2v5h4v-5a2 2 0 0 0-2-2zm99.5-17a8 8 0 0 0-8 8v12h16v-12a8 8 0 0 0-8-8zm-40 0a8 8 0 0 0-8 8v12h16v-12a8 8 0 0 0-8-8zm-20 0a8 8 0 0 0-8 8v12h16v-12a8 8 0 0 0-8-8zm40 0a8 8 0 0 0-8 8v12h16v-12a8 8 0 0 0-8-8zm40 0a8 8 0 0 0-8 8v12h16v-12a8 8 0 0 0-8-8zM65 114H53v4h12v-4zm245 0h-12v4h12v-4zm-219 0H79v4h12v-4zm245 0h-12v4h12v-4zm-219 0h-12v4h12v-4zm245 0h-12v4h12v-4zm-220 0h-11v4h11v-4zm142 0h-11v4h11v-4zm15-25H116v7h183v-7zm-30-10H146v6h123v-6z" fill="#1A191A" fill-rule="nonzero"/></g></svg>