<svg xmlns="http://www.w3.org/2000/svg" xmlns:xlink="http://www.w3.org/1999/xlink" width="810pt" height="809.999993pt" viewBox="0 0 810 809.999993"><defs><clipPath id="clip1"><path d="M 142.828125 64.539062 L 676.582031 64.539062 L 676.582031 758.957031 L 142.828125 758.957031 Z M 142.828125 64.539062 "></path></clipPath><clipPath id="clip2"><path d="M 142.828125 64 L 581 64 L 581 625 L 142.828125 625 Z M 142.828125 64 "></path></clipPath><clipPath id="clip3"><path d="M 315 422.171875 L 676.582031 422.171875 L 676.582031 758.957031 L 315 758.957031 Z M 315 422.171875 "></path></clipPath></defs><g id="surface1"><g clip-path="url(#clip1)" clip-rule="nonzero"><path style=" stroke:none;fill-rule:nonzero;fill:rgb(9.408569%,25.099182%,34.509277%);fill-opacity:1;" d="M 557.097656 422.070312 C 556.671875 432.773438 555.203125 445.835938 553.746094 461.265625 L 553.746094 421.046875 C 555.203125 421.402344 556.003906 421.738281 557.097656 422.070312 Z M 675.929688 714.453125 C 675.007812 710.609375 673.5 707.765625 671.410156 705.917969 C 671.015625 702.847656 670.753906 700.5625 670.605469 699.050781 C 672.0625 695.796875 673.277344 689.980469 674.25 681.609375 C 675.511719 669.640625 675.585938 655.847656 674.472656 640.230469 C 673.445312 624.605469 671.773438 610.5 669.441406 597.898438 C 668.664062 593.027344 667.113281 588.382812 664.777344 583.957031 C 663.269531 581.230469 661.789062 578.386719 660.332031 575.414062 C 655.285156 565.441406 653.839844 555.417969 655.488281 545.347656 C 657.234375 535.128906 658.660156 523.28125 658.660156 509.800781 C 658.660156 508.4375 658.660156 507.074219 658.660156 505.710938 C 658.660156 503.378906 659.546875 500.894531 659.933594 498.273438 C 660.417969 494.378906 660.003906 490.578125 658.933594 486.882812 C 658.546875 480.65625 658.238281 473.917969 658.140625 466.664062 C 657.554688 435.527344 656.3125 409.734375 654.464844 389.300781 C 656.167969 382.925781 657.09375 375.675781 657.292969 367.550781 C 657.824219 343.90625 652.621094 331.46875 641.691406 330.253906 C 640.234375 330.105469 638.84375 330.039062 637.535156 330.039062 C 633.84375 328.28125 629.878906 327.1875 625.65625 326.753906 C 625.949219 326.605469 626.238281 326.507812 626.527344 326.457031 C 628.667969 325.824219 631.578125 323.664062 635.269531 319.964844 C 638.960938 316.3125 641.203125 310.839844 641.976562 303.542969 C 642.753906 296.195312 640.683594 289.261719 635.78125 282.738281 C 630.78125 276.074219 623.976562 272.207031 615.382812 271.136719 C 606.691406 269.96875 599.234375 271.746094 593.011719 276.460938 C 586.796875 281.136719 584.78125 285.441406 586.96875 289.382812 C 587.109375 291.183594 587.652344 292.570312 588.566406 293.546875 C 585.171875 297.777344 583.46875 302.765625 583.46875 308.507812 C 583.46875 315.269531 586.15625 321.035156 591.011719 325.800781 C 592.855469 327.699219 594.542969 329.234375 597.457031 330.402344 L 597.457031 331.566406 C 581.429688 337.457031 572.164062 344.636719 567.554688 353.097656 C 562.691406 361.808594 559.824219 370.152344 559.191406 378.136719 C 558.894531 381.441406 558.507812 384.214844 558.359375 386.453125 C 556.925781 386.316406 555.203125 386.148438 553.746094 385.941406 L 553.746094 354.996094 L 580.082031 105.09375 L 571.464844 104.214844 L 571.820312 97.578125 L 553.746094 96.335938 L 553.746094 83.105469 L 375.242188 83.105469 L 197.324219 64.539062 L 196.667969 71.207031 L 187.925781 70.40625 L 187.054688 83.105469 L 169.058594 83.105469 L 169.058594 333.980469 L 142.828125 583.808594 L 151.933594 584.761719 L 151.496094 591.253906 L 169.058594 592.492188 L 169.058594 605.6875 L 320.203125 605.6875 C 320.429688 607.144531 320.6875 609.460938 320.964844 611.316406 C 321.984375 617.546875 323.078125 622.308594 324.242188 625.660156 C 316.765625 638.851562 313.894531 652.75 315.648438 667.394531 C 315.9375 670.359375 317.417969 672.570312 320.089844 674.03125 C 328.785156 679.378906 335.074219 676.945312 338.960938 666.726562 C 342.308594 657.96875 344.425781 648.839844 345.296875 639.351562 C 346.175781 634.925781 346.316406 631.226562 345.734375 628.261719 C 346.804688 625.773438 347.535156 622.445312 347.921875 618.257812 C 348.304688 613.65625 348.765625 609.421875 349.304688 605.5625 L 401.621094 611.070312 C 401.585938 611.34375 401.5625 611.621094 401.546875 611.90625 C 401.109375 612.054688 400.667969 612.199219 400.230469 612.347656 C 397.5625 613.464844 395.957031 615.316406 395.425781 617.894531 C 395.132812 619.207031 394.960938 620.546875 394.914062 621.910156 C 394.527344 625.699219 394.960938 629.183594 396.222656 632.34375 C 396.664062 633.511719 397.34375 634.363281 398.269531 634.898438 C 401.664062 636.601562 405.042969 638.375 408.394531 640.230469 C 412.277344 642.320312 416.28125 643.730469 420.414062 644.460938 C 427.359375 645.921875 434.382812 646.285156 441.46875 645.554688 C 443.558594 645.308594 445.699219 644.65625 447.886719 643.582031 C 449.097656 643 450.359375 642.417969 451.671875 641.832031 C 452.300781 641.542969 452.835938 641.027344 453.273438 640.296875 C 453.804688 639.671875 454.101562 638.988281 454.144531 638.257812 C 454.875 633.683594 453.105469 630.300781 448.828125 628.113281 C 446.109375 626.601562 443.410156 625.191406 440.742188 623.875 C 435.203125 621.242188 430.164062 617.820312 425.625 613.625 L 525.695312 624.171875 L 526.421875 617.53125 L 535.53125 618.25 L 536.40625 605.6875 L 553.746094 605.6875 L 553.746094 519.289062 L 555.019531 518.195312 C 555.941406 519.507812 556.910156 520.773438 558.167969 521.992188 C 558.023438 525.640625 558.117188 529.722656 558.117188 534.25 L 558.117188 613.589844 C 558.117188 614.707031 558.738281 618.28125 558.738281 624.316406 C 558.691406 630.207031 558.925781 642.175781 559.261719 660.226562 C 559.554688 678.183594 560.910156 699.566406 563.246094 724.378906 C 564.992188 725.160156 566.738281 725.839844 568.441406 726.421875 C 568.390625 726.957031 568.378906 727.546875 568.378906 728.179688 C 563.277344 726.667969 558.066406 725.570312 552.71875 724.894531 C 549.761719 724.699219 546.847656 724.625 543.984375 724.671875 C 538.882812 727.351562 536.765625 731.3125 537.640625 736.570312 C 537.789062 737.203125 538.082031 737.808594 538.519531 738.394531 C 540.753906 741.316406 543.574219 743.746094 546.972656 745.695312 C 550.074219 747.445312 553.1875 749.171875 556.292969 750.871094 C 563.1875 754.667969 570.425781 757.296875 578.003906 758.757812 C 581.941406 759.488281 585.027344 758.246094 587.257812 755.035156 C 589.933594 751.339844 590.664062 747.324219 589.445312 742.992188 C 588.566406 739.925781 587.042969 737.421875 584.855469 735.476562 C 585.101562 735.039062 585.289062 734.597656 585.4375 734.160156 C 585.726562 731.238281 585.949219 729.148438 586.09375 727.882812 C 588.226562 727.882812 589.78125 726.933594 590.753906 725.035156 C 593.480469 720.023438 595.398438 714.722656 596.515625 709.128906 C 599.617188 692.921875 603.164062 676.695312 607.148438 660.441406 C 611.132812 644.535156 610.355469 628.917969 604.820312 613.589844 C 602.683594 607.261719 602.269531 600.863281 603.578125 594.390625 C 605.867188 582.667969 609.070312 571.183594 613.199219 559.945312 C 616.402344 568.503906 619.289062 577.460938 621.867188 586.800781 C 625.65625 600.28125 629.027344 612.347656 631.992188 623.003906 C 634.90625 633.757812 636.996094 641.832031 638.257812 647.230469 C 639.425781 652.683594 640.957031 658.671875 642.847656 665.1875 C 644.742188 671.5625 646.320312 679.761719 647.582031 689.785156 C 648.265625 694.554688 649.335938 698.15625 650.792969 700.585938 C 643.261719 699.46875 635.835938 697.621094 628.496094 695.039062 C 624.808594 693.726562 621.597656 694.359375 618.878906 696.9375 C 617.621094 698.105469 617.101562 699.492188 617.347656 701.097656 C 617.933594 705.136719 619.441406 708.933594 621.867188 712.484375 C 624.199219 715.210938 626.699219 717.765625 629.367188 720.148438 C 632.765625 723.113281 638.914062 725.625 647.804688 727.664062 C 656.644531 729.511719 664.585938 730.121094 671.625 729.488281 C 671.625 729.390625 671.648438 729.390625 671.699219 729.488281 C 672.09375 729.101562 672.53125 728.714844 673.015625 728.320312 C 676.507812 725.257812 677.476562 720.632812 675.929688 714.453125 "></path></g><g clip-path="url(#clip2)" clip-rule="nonzero"><path style=" stroke:none;fill-rule:evenodd;fill:rgb(67.83905%,74.899292%,78.42865%);fill-opacity:1;" d="M 371.019531 83.488281 L 196.667969 71.300781 L 197.324219 64.734375 L 375.242188 83.488281 Z M 169.058594 340.257812 L 151.933594 584.761719 L 142.828125 583.808594 L 169.058594 333.980469 Z M 355.644531 605.5625 L 399.253906 608.625 C 399.941406 609.1875 400.785156 609.550781 401.761719 609.71875 C 401.699219 610.152344 401.65625 610.601562 401.621094 611.070312 L 349.304688 605.5625 Z M 425.625 613.625 C 425.21875 613.253906 424.816406 612.871094 424.421875 612.496094 C 422.816406 611.371094 421.167969 610.597656 419.46875 610.15625 C 419.46875 610.117188 419.46875 610.078125 419.46875 610.046875 L 526.421875 617.53125 L 525.695312 624.171875 Z M 553.960938 354.855469 L 571.519531 104.214844 L 580.191406 105.09375 L 553.960938 354.996094 L 553.960938 354.855469 "></path></g><path style=" stroke:none;fill-rule:evenodd;fill:rgb(78.039551%,83.139038%,85.488892%);fill-opacity:1;" d="M 399.253906 608.625 L 355.644531 605.5625 L 397.175781 605.5625 C 397.410156 606.023438 397.652344 606.484375 397.902344 606.945312 C 398.261719 607.632812 398.710938 608.191406 399.253906 608.625 Z M 196.667969 71.300781 L 371.019531 83.488281 L 187.054688 83.488281 L 187.925781 70.640625 Z M 151.933594 584.761719 L 169.058594 340.257812 L 169.058594 592.492188 L 151.496094 591.253906 Z M 526.421875 617.53125 L 419.46875 610.046875 C 419.515625 609.460938 419.539062 608.960938 419.539062 608.550781 C 421.582031 607.96875 423.523438 607.238281 425.367188 606.359375 C 425.394531 606.089844 425.417969 605.824219 425.441406 605.5625 L 536.40625 605.5625 L 535.53125 618.183594 Z M 571.519531 104.214844 L 553.960938 354.855469 L 553.960938 96.335938 L 571.957031 97.578125 L 571.519531 104.214844 "></path><path style=" stroke:none;fill-rule:evenodd;fill:rgb(100%,100%,100%);fill-opacity:1;" d="M 615.820312 331.789062 C 617.621094 331.984375 619.34375 332.347656 620.988281 332.882812 C 626.285156 334.679688 629.367188 337.554688 630.246094 341.492188 C 631.167969 345.386719 629.640625 349.253906 625.65625 353.097656 C 621.628906 356.941406 616.304688 359.667969 609.695312 361.273438 C 603.140625 362.78125 597.21875 362.660156 591.921875 360.910156 C 586.574219 359.203125 583.421875 356.382812 582.449219 352.441406 C 581.625 348.546875 583.222656 344.636719 587.257812 340.691406 C 589.933594 338.164062 593.160156 336.167969 596.945312 334.707031 L 596.945312 342.878906 C 596.945312 345.367188 597.851562 347.453125 599.644531 349.15625 C 601.390625 351.003906 603.527344 351.933594 606.054688 351.933594 C 608.484375 351.933594 610.617188 351.003906 612.46875 349.15625 C 614.171875 347.453125 615.019531 345.367188 615.019531 342.878906 L 615.019531 332.003906 C 615.261719 331.960938 615.523438 331.886719 615.820312 331.789062 Z M 256.410156 523.230469 L 208.691406 523.230469 L 208.691406 475.421875 L 256.410156 475.421875 Z M 263.625 471.773438 C 263.625 470.753906 263.257812 469.902344 262.53125 469.21875 C 261.851562 468.542969 261.003906 468.199219 259.980469 468.199219 L 205.046875 468.199219 C 204.027344 468.199219 203.179688 468.542969 202.496094 469.21875 C 201.820312 469.902344 201.476562 470.753906 201.476562 471.773438 L 201.476562 526.804688 C 201.476562 527.832031 201.820312 528.679688 202.496094 529.359375 C 203.179688 530.089844 204.027344 530.453125 205.046875 530.453125 L 259.980469 530.453125 C 261.003906 530.453125 261.851562 530.089844 262.53125 529.359375 C 263.257812 528.679688 263.625 527.832031 263.625 526.804688 Z M 256.410156 396.457031 L 256.410156 426.886719 L 208.691406 426.886719 L 208.691406 381.925781 L 225.15625 418.054688 C 226.128906 420.050781 227.585938 421.511719 229.527344 422.433594 C 231.519531 423.363281 233.558594 423.527344 235.648438 422.949219 C 237.789062 422.367188 239.484375 421.175781 240.746094 419.371094 Z M 246.574219 379.082031 L 234.84375 396.234375 L 227.050781 379.082031 Z M 263.625 385.796875 L 275.941406 367.625 C 277.296875 365.628906 277.761719 363.414062 277.324219 360.984375 C 276.835938 358.546875 275.578125 356.628906 273.535156 355.21875 C 271.542969 353.804688 269.332031 353.34375 266.902344 353.828125 C 264.476562 354.265625 262.558594 355.507812 261.148438 357.550781 L 251.460938 371.855469 L 223.335938 371.855469 C 222.363281 370.738281 221.171875 369.914062 219.765625 369.375 C 217.433594 368.5 215.152344 368.59375 212.917969 369.667969 C 211.703125 370.203125 210.707031 370.933594 209.929688 371.855469 L 205.046875 371.855469 C 204.027344 371.855469 203.179688 372.199219 202.496094 372.878906 C 201.820312 373.5625 201.476562 374.410156 201.476562 375.433594 L 201.476562 430.460938 C 201.476562 431.488281 201.820312 432.339844 202.496094 433.015625 C 203.179688 433.746094 204.027344 434.113281 205.046875 434.113281 L 259.980469 434.113281 C 261.003906 434.113281 261.851562 433.746094 262.53125 433.015625 C 263.257812 432.339844 263.625 431.488281 263.625 430.460938 Z M 370.691406 507.539062 C 372.179688 501.734375 373.796875 496.066406 375.535156 490.535156 L 385.226562 490.535156 C 384.878906 492.171875 384.425781 493.800781 383.839844 495.421875 C 382.402344 499.441406 381.300781 503.476562 380.527344 507.539062 Z M 380.855469 474.984375 C 381.703125 472.675781 382.507812 470.3125 383.257812 467.90625 C 383.832031 470.25 384.367188 472.605469 384.863281 474.984375 Z M 402.417969 207.488281 C 402.179688 208.808594 401.738281 210.074219 401.109375 211.289062 C 398.96875 215.421875 396.128906 216.398438 392.582031 214.207031 C 391.902344 213.769531 391.347656 213.230469 390.90625 212.597656 C 390.371094 211.871094 390.082031 210.996094 390.03125 209.976562 Z M 372.769531 225.007812 L 372.769531 233.621094 C 372.769531 236.050781 373.667969 238.144531 375.460938 239.902344 C 377.214844 241.695312 379.347656 242.597656 381.875 242.597656 C 384.351562 242.597656 386.484375 241.695312 388.285156 239.902344 C 390.03125 238.144531 390.90625 236.050781 390.90625 233.621094 L 390.90625 222.308594 C 391.101562 222.210938 391.316406 222.136719 391.5625 222.085938 C 393.40625 222.28125 395.207031 222.644531 396.953125 223.183594 C 402.246094 224.984375 405.332031 227.828125 406.207031 231.722656 C 406.339844 232.28125 406.425781 232.847656 406.464844 233.398438 C 406.652344 236.769531 405.035156 240.105469 401.621094 243.402344 C 397.585938 247.246094 392.269531 249.949219 385.660156 251.503906 C 379.101562 253.0625 373.175781 252.964844 367.882812 251.214844 C 362.539062 249.457031 359.386719 246.632812 358.414062 242.746094 C 357.71875 239.617188 358.582031 236.503906 361.003906 233.398438 C 361.640625 232.597656 362.378906 231.796875 363.222656 230.992188 C 365.792969 228.511719 368.976562 226.519531 372.769531 225.007812 Z M 256.410156 300.546875 L 256.410156 330.621094 L 208.691406 330.621094 L 208.691406 282.8125 L 211.460938 282.8125 L 215.246094 315.144531 C 215.441406 317.335938 216.339844 319.1875 217.945312 320.691406 C 219.597656 322.152344 221.515625 322.957031 223.699219 323.105469 C 225.886719 323.203125 227.828125 322.589844 229.527344 321.28125 Z M 256.410156 203.40625 L 256.410156 233.765625 L 208.691406 233.765625 L 208.691406 188.878906 L 225.15625 225.007812 C 226.128906 227.003906 227.585938 228.460938 229.527344 229.386719 C 231.519531 230.308594 233.558594 230.480469 235.648438 229.898438 C 237.789062 229.316406 239.484375 228.121094 240.746094 226.324219 Z M 227.050781 185.960938 L 246.574219 185.960938 L 234.84375 203.183594 Z M 259.398438 275.589844 L 228.652344 275.589844 L 228.363281 273.25 C 228.117188 270.769531 227.023438 268.777344 225.082031 267.269531 C 223.140625 265.707031 220.933594 265.082031 218.453125 265.371094 C 216.027344 265.609375 214.035156 266.707031 212.480469 268.65625 C 210.972656 270.554688 210.339844 272.765625 210.585938 275.296875 L 210.660156 275.589844 L 205.046875 275.589844 C 204.027344 275.589844 203.179688 275.925781 202.496094 276.609375 C 201.820312 277.289062 201.476562 278.144531 201.476562 279.164062 L 201.476562 334.195312 C 201.476562 335.214844 201.820312 336.070312 202.496094 336.75 C 203.179688 337.480469 204.027344 337.84375 205.046875 337.84375 L 259.980469 337.84375 C 261.003906 337.84375 261.851562 337.480469 262.53125 336.75 C 263.257812 336.070312 263.625 335.214844 263.625 334.195312 L 263.625 294.929688 L 279.070312 282.960938 C 281.011719 281.453125 282.132812 279.457031 282.425781 276.976562 C 282.761719 274.496094 282.15625 272.277344 280.601562 270.332031 C 279.09375 268.386719 277.128906 267.269531 274.699219 266.972656 C 272.222656 266.683594 270.011719 267.292969 268.070312 268.796875 Z M 250.078125 282.8125 L 231.132812 297.410156 L 229.453125 282.8125 Z M 223.261719 178.734375 C 222.339844 177.664062 221.171875 176.863281 219.765625 176.328125 C 217.433594 175.449219 215.152344 175.546875 212.917969 176.621094 C 211.753906 177.105469 210.777344 177.8125 210.003906 178.734375 L 205.046875 178.734375 C 204.027344 178.734375 203.179688 179.078125 202.496094 179.753906 C 201.820312 180.441406 201.476562 181.289062 201.476562 182.308594 L 201.476562 237.347656 C 201.476562 238.367188 201.820312 239.214844 202.496094 239.902344 C 203.179688 240.628906 204.027344 240.996094 205.046875 240.996094 L 259.980469 240.996094 C 261.003906 240.996094 261.851562 240.628906 262.53125 239.902344 C 263.257812 239.214844 263.625 238.367188 263.625 237.347656 L 263.625 192.75 L 275.941406 174.578125 C 277.296875 172.582031 277.761719 170.363281 277.324219 167.933594 C 276.835938 165.5 275.578125 163.578125 273.535156 162.171875 C 271.542969 160.757812 269.332031 160.292969 266.902344 160.777344 C 264.476562 161.21875 262.558594 162.460938 261.148438 164.503906 L 251.535156 178.734375 Z M 286.722656 129.761719 L 286.722656 145.308594 L 515.933594 145.308594 L 515.933594 129.761719 Z M 553.960938 421.046875 L 553.960938 461.265625 C 553.523438 465.0625 553.03125 469.007812 552.503906 473.089844 C 551.878906 478 551.410156 482.601562 551.121094 486.882812 C 550.976562 487.324219 550.859375 487.785156 550.757812 488.269531 C 549.203125 492.113281 547.476562 495.933594 545.582031 499.730469 C 545.441406 500.65625 545.394531 501.578125 545.441406 502.503906 L 535.457031 511.773438 C 534.242188 512.9375 533.78125 514.566406 534.074219 516.660156 C 534.410156 518.753906 535.433594 520.699219 537.136719 522.5 C 538.835938 524.347656 540.703125 525.515625 542.742188 526.007812 C 544.832031 526.535156 546.503906 526.222656 547.769531 525.054688 L 553.960938 519.289062 L 553.960938 605.5625 L 425.441406 605.5625 C 427.828125 581.132812 429.113281 560.011719 429.304688 542.207031 C 429.464844 534.816406 429.585938 528.441406 429.671875 523.085938 L 471.125 523.085938 L 471.125 507.539062 L 429.738281 507.539062 C 429.746094 507.070312 429.746094 506.636719 429.738281 506.226562 C 429.738281 500.289062 429.886719 496.738281 430.175781 495.570312 L 430.175781 490.535156 L 515.933594 490.535156 L 515.933594 474.984375 L 430.175781 474.984375 L 430.175781 426.15625 L 471.125 426.15625 L 471.125 410.613281 L 430.359375 410.613281 C 430.386719 408.539062 430.375 406.59375 430.324219 404.773438 C 430.949219 403.652344 431.558594 402.558594 432.144531 401.492188 C 432.585938 402.363281 433.335938 403.121094 434.40625 403.753906 C 436.296875 404.917969 438.480469 405.476562 440.964844 405.429688 C 443.394531 405.332031 445.425781 404.625 447.082031 403.316406 C 448.828125 402.09375 449.707031 400.613281 449.707031 398.863281 L 449.707031 396.597656 C 450.964844 396.074219 451.996094 395.269531 452.800781 394.191406 L 468.101562 394.191406 L 471.339844 394.996094 C 473.628906 395.589844 475.816406 395.320312 477.898438 394.191406 L 490.648438 394.191406 L 491.597656 394.558594 C 491.546875 398.304688 494.03125 401.34375 499.027344 403.679688 C 504.664062 406.308594 515.761719 410.003906 532.324219 414.769531 C 540.324219 417.046875 547.535156 419.136719 553.960938 421.046875 Z M 322.820312 523.085938 C 322.5 524.53125 322.25 525.988281 322.058594 527.464844 C 320.308594 540.113281 319.261719 554.25 318.925781 569.867188 C 318.558594 583.066406 318.976562 594.964844 320.203125 605.5625 L 169.058594 605.5625 L 169.058594 83.488281 L 553.960938 83.488281 L 553.960938 385.941406 C 539.542969 384.042969 521.328125 379.148438 499.316406 371.277344 C 498.445312 373.363281 497.644531 375.3125 496.914062 377.113281 L 482.195312 371.566406 C 479.867188 370.6875 477.578125 370.761719 475.347656 371.78125 C 473.277344 372.78125 471.785156 374.242188 470.867188 376.164062 L 459.03125 373.242188 C 459.175781 372.269531 459.367188 371.246094 459.609375 370.179688 C 456.992188 369.546875 454.464844 368.886719 452.035156 368.207031 C 449.960938 355.5625 447.890625 342.914062 445.808594 330.253906 L 471.125 330.253906 L 471.125 314.710938 L 443.21875 314.710938 C 442.296875 309.207031 441.375 303.710938 440.449219 298.214844 L 515.933594 298.214844 L 515.933594 282.664062 L 437.867188 282.664062 C 436.945312 276.355469 436.226562 270.03125 435.714844 263.691406 C 434.941406 254.640625 433.484375 245.761719 431.34375 237.050781 C 430.871094 235.761719 430.382812 234.546875 429.886719 233.398438 L 471.125 233.398438 L 471.125 217.855469 L 398.8125 217.855469 C 399.464844 217.332031 400.078125 216.765625 400.667969 216.179688 C 404.769531 212.074219 407.097656 207.234375 407.664062 201.652344 L 515.933594 201.652344 L 515.933594 186.109375 L 409.667969 186.109375 C 409.714844 185.292969 409.75 184.414062 409.777344 183.480469 C 409.96875 178.519531 407.472656 173.484375 402.273438 168.375 C 396.980469 163.117188 390.253906 160.414062 382.089844 160.273438 C 373.832031 160.078125 366.597656 163.019531 360.382812 169.105469 C 355.207031 174.160156 352.101562 179.828125 351.050781 186.109375 L 286.722656 186.109375 L 286.722656 201.652344 L 354.222656 201.652344 C 356.449219 205.511719 359.738281 209.621094 364.097656 213.992188 C 364.679688 214.71875 365.3125 215.449219 365.988281 216.179688 C 366.585938 216.773438 367.1875 217.332031 367.808594 217.855469 L 287.523438 217.855469 L 287.523438 233.398438 L 352.839844 233.398438 C 347.882812 237.054688 344.25 241.097656 341.945312 245.515625 C 338.398438 252.429688 335.996094 261.820312 334.734375 273.691406 C 333.792969 276.683594 332.96875 279.679688 332.257812 282.664062 L 286.722656 282.664062 L 286.722656 298.214844 L 329.492188 298.214844 C 328.867188 303.710938 328.609375 309.207031 328.722656 314.710938 L 287.523438 314.710938 L 287.523438 330.253906 L 330.070312 330.253906 C 330.492188 333.003906 331 335.75 331.601562 338.5 C 330.875 346.140625 329.925781 354.414062 328.761719 363.316406 C 328.132812 368.230469 327.671875 372.832031 327.375 377.113281 C 327.25 377.628906 327.128906 378.140625 327.007812 378.644531 L 286.722656 378.644531 L 286.722656 394.191406 L 325.917969 394.191406 C 326.515625 399.265625 328.164062 403.765625 330.875 407.695312 C 330.742188 408.667969 330.625 409.644531 330.511719 410.613281 L 287.523438 410.613281 L 287.523438 426.15625 L 329.417969 426.15625 C 329.320312 430.496094 329.390625 434.777344 329.632812 439.003906 C 330.316406 452.484375 331.722656 464.234375 333.863281 474.253906 C 333.914062 474.5 333.960938 474.746094 334.003906 474.984375 L 286.722656 474.984375 L 286.722656 490.535156 L 334.445312 490.535156 C 333.753906 495.210938 332.347656 499.902344 330.21875 504.617188 C 329.777344 505.585938 329.328125 506.5625 328.871094 507.539062 L 287.523438 507.539062 L 287.523438 523.085938 Z M 367.011719 523.085938 L 379.070312 523.085938 C 379.125 529.484375 379.960938 535.929688 381.585938 542.429688 C 385.519531 558.679688 389.0625 574.929688 392.21875 591.179688 C 393.191406 596.214844 394.839844 601.003906 397.175781 605.5625 L 349.304688 605.5625 C 349.941406 601.003906 350.699219 596.96875 351.566406 593.445312 C 353.171875 586.921875 354.429688 580.910156 355.355469 575.414062 C 356.375 569.964844 358.121094 561.792969 360.597656 550.890625 C 362.5625 542.492188 364.703125 533.21875 367.011719 523.085938 "></path><path style=" stroke:none;fill-rule:evenodd;fill:rgb(96.078491%,46.669006%,17.649841%);fill-opacity:1;" d="M 263.625 385.796875 L 256.410156 396.457031 L 240.746094 419.371094 C 239.484375 421.175781 237.789062 422.367188 235.648438 422.949219 C 233.558594 423.527344 231.519531 423.363281 229.527344 422.433594 C 227.585938 421.511719 226.128906 420.050781 225.15625 418.054688 L 208.691406 381.925781 L 208.472656 381.492188 C 207.5 379.253906 207.453125 376.964844 208.324219 374.628906 C 208.71875 373.5625 209.246094 372.632812 209.929688 371.855469 C 210.707031 370.933594 211.703125 370.203125 212.917969 369.667969 C 215.152344 368.59375 217.433594 368.5 219.765625 369.375 C 221.171875 369.914062 222.363281 370.738281 223.335938 371.855469 C 223.917969 372.488281 224.40625 373.21875 224.792969 374.046875 L 227.050781 379.082031 L 234.84375 396.234375 L 246.574219 379.082031 L 251.460938 371.855469 L 261.148438 357.550781 C 262.558594 355.507812 264.476562 354.265625 266.902344 353.828125 C 269.332031 353.34375 271.542969 353.804688 273.535156 355.21875 C 275.578125 356.628906 276.835938 358.546875 277.324219 360.984375 C 277.761719 363.414062 277.296875 365.628906 275.941406 367.625 Z M 228.652344 275.589844 L 229.453125 282.8125 L 231.132812 297.410156 L 250.078125 282.8125 L 259.398438 275.589844 L 268.070312 268.796875 C 270.011719 267.292969 272.222656 266.683594 274.699219 266.972656 C 277.128906 267.269531 279.09375 268.386719 280.601562 270.332031 C 282.15625 272.277344 282.761719 274.496094 282.425781 276.976562 C 282.132812 279.457031 281.011719 281.453125 279.070312 282.960938 L 263.625 294.929688 L 256.410156 300.546875 L 229.527344 321.28125 C 227.828125 322.589844 225.886719 323.203125 223.699219 323.105469 C 221.515625 322.957031 219.597656 322.152344 217.945312 320.691406 C 216.339844 319.1875 215.441406 317.335938 215.246094 315.144531 L 211.460938 282.8125 L 210.660156 275.589844 L 210.585938 275.296875 C 210.339844 272.765625 210.972656 270.554688 212.480469 268.65625 C 214.035156 266.707031 216.027344 265.609375 218.453125 265.371094 C 220.933594 265.082031 223.140625 265.707031 225.082031 267.269531 C 227.023438 268.777344 228.117188 270.769531 228.363281 273.25 Z M 263.625 192.75 L 256.410156 203.40625 L 240.746094 226.324219 C 239.484375 228.121094 237.789062 229.316406 235.648438 229.898438 C 233.558594 230.480469 231.519531 230.308594 229.527344 229.386719 C 227.585938 228.460938 226.128906 227.003906 225.15625 225.007812 L 208.691406 188.878906 L 208.472656 188.445312 C 207.5 186.203125 207.453125 183.917969 208.324219 181.578125 C 208.71875 180.460938 209.277344 179.515625 210.003906 178.734375 C 210.777344 177.8125 211.753906 177.105469 212.917969 176.621094 C 215.152344 175.546875 217.433594 175.449219 219.765625 176.328125 C 221.171875 176.863281 222.339844 177.664062 223.261719 178.734375 C 223.847656 179.367188 224.355469 180.121094 224.792969 181 L 227.050781 185.960938 L 234.84375 203.183594 L 246.574219 185.960938 L 251.535156 178.734375 L 261.148438 164.503906 C 262.558594 162.460938 264.476562 161.21875 266.902344 160.777344 C 269.332031 160.292969 271.542969 160.757812 273.535156 162.171875 C 275.578125 163.578125 276.835938 165.5 277.324219 167.933594 C 277.761719 170.363281 277.296875 172.582031 275.941406 174.578125 L 263.625 192.75 "></path><path style=" stroke:none;fill-rule:evenodd;fill:rgb(91.758728%,92.158508%,92.549133%);fill-opacity:1;" d="M 334.003906 474.984375 C 335.050781 480.144531 335.195312 485.320312 334.445312 490.535156 L 286.722656 490.535156 L 286.722656 474.984375 Z M 322.820312 523.085938 L 287.523438 523.085938 L 287.523438 507.539062 L 328.871094 507.539062 C 327.996094 509.449219 327.113281 511.367188 326.210938 513.300781 C 324.722656 516.496094 323.589844 519.75 322.820312 523.085938 Z M 370.691406 507.539062 L 380.527344 507.539062 C 379.523438 512.6875 379.035156 517.871094 379.070312 523.085938 L 367.011719 523.085938 C 367.679688 520.191406 368.363281 517.21875 369.050781 514.179688 C 369.578125 511.945312 370.125 509.734375 370.691406 507.539062 Z M 380.855469 474.984375 L 384.863281 474.984375 C 384.964844 475.421875 385.0625 475.863281 385.152344 476.300781 C 386.15625 481.125 386.183594 485.871094 385.226562 490.535156 L 375.535156 490.535156 C 377.171875 485.304688 378.921875 480.195312 380.78125 475.207031 C 380.804688 475.132812 380.832031 475.058594 380.855469 474.984375 Z M 329.417969 426.15625 L 287.523438 426.15625 L 287.523438 410.613281 L 330.511719 410.613281 C 329.90625 415.871094 329.542969 421.054688 329.417969 426.15625 Z M 330.070312 330.253906 L 287.523438 330.253906 L 287.523438 314.710938 L 328.722656 314.710938 C 328.847656 319.890625 329.296875 325.070312 330.070312 330.253906 Z M 325.917969 394.191406 L 286.722656 394.191406 L 286.722656 378.644531 L 327.007812 378.644531 C 325.742188 384.316406 325.375 389.5 325.917969 394.191406 Z M 430.175781 490.535156 L 430.175781 474.984375 L 515.933594 474.984375 L 515.933594 490.535156 Z M 429.738281 507.539062 L 471.125 507.539062 L 471.125 523.085938 L 429.671875 523.085938 C 429.761719 516.253906 429.789062 511.074219 429.738281 507.539062 Z M 430.175781 426.15625 L 430.175781 416.304688 C 430.269531 414.316406 430.332031 412.414062 430.359375 410.613281 L 471.125 410.613281 L 471.125 426.15625 Z M 490.648438 394.191406 L 477.898438 394.191406 C 478.011719 394.125 478.136719 394.050781 478.261719 393.96875 C 479.640625 393.109375 480.683594 392.015625 481.398438 390.683594 Z M 468.101562 394.191406 L 452.800781 394.191406 C 453.109375 393.769531 453.394531 393.308594 453.640625 392.804688 C 453.929688 392.21875 454.21875 391.5625 454.511719 390.832031 Z M 367.808594 217.855469 C 369.359375 219.132812 371.007812 220.207031 372.769531 221.066406 L 372.769531 223.183594 C 364.667969 226.171875 358.023438 229.574219 352.839844 233.398438 L 287.523438 233.398438 L 287.523438 217.855469 Z M 445.808594 330.253906 C 444.941406 325.070312 444.078125 319.894531 443.21875 314.710938 L 471.125 314.710938 L 471.125 330.253906 Z M 332.257812 282.664062 C 331 287.847656 330.078125 293.03125 329.492188 298.214844 L 286.722656 298.214844 L 286.722656 282.664062 Z M 437.867188 282.664062 L 515.933594 282.664062 L 515.933594 298.214844 L 440.449219 298.214844 C 440.136719 296.316406 439.820312 294.417969 439.507812 292.519531 C 438.902344 289.242188 438.355469 285.957031 437.867188 282.664062 Z M 398.8125 217.855469 L 471.125 217.855469 L 471.125 233.398438 L 429.886719 233.398438 C 426.664062 226.003906 422.976562 221.675781 418.808594 220.410156 C 415.410156 219.339844 412.421875 219.265625 409.851562 220.195312 C 406.253906 219.023438 402.417969 218.371094 398.339844 218.222656 C 398.496094 218.101562 398.65625 217.980469 398.8125 217.855469 Z M 407.375 193.917969 C 407.664062 194.5 408.03125 194.234375 408.46875 193.117188 C 409.054688 191.785156 409.453125 189.449219 409.667969 186.109375 L 515.933594 186.109375 L 515.933594 201.652344 L 407.664062 201.652344 C 407.761719 200.75 407.8125 199.828125 407.8125 198.878906 C 407.8125 197.128906 407.664062 195.476562 407.375 193.917969 Z M 351.050781 186.109375 C 350.851562 187.375 350.734375 188.660156 350.6875 189.972656 C 350.613281 193.570312 351.792969 197.464844 354.222656 201.652344 L 286.722656 201.652344 L 286.722656 186.109375 Z M 286.722656 129.761719 L 515.933594 129.761719 L 515.933594 145.308594 L 286.722656 145.308594 L 286.722656 129.761719 "></path><path style=" stroke:none;fill-rule:evenodd;fill:rgb(42.749023%,59.999084%,65.489197%);fill-opacity:1;" d="M 263.625 471.773438 L 263.625 526.804688 C 263.625 527.832031 263.257812 528.679688 262.53125 529.359375 C 261.851562 530.089844 261.003906 530.453125 259.980469 530.453125 L 205.046875 530.453125 C 204.027344 530.453125 203.179688 530.089844 202.496094 529.359375 C 201.820312 528.679688 201.476562 527.832031 201.476562 526.804688 L 201.476562 471.773438 C 201.476562 470.753906 201.820312 469.902344 202.496094 469.21875 C 203.179688 468.542969 204.027344 468.199219 205.046875 468.199219 L 259.980469 468.199219 C 261.003906 468.199219 261.851562 468.542969 262.53125 469.21875 C 263.257812 469.902344 263.625 470.753906 263.625 471.773438 Z M 256.410156 523.230469 L 256.410156 475.421875 L 208.691406 475.421875 L 208.691406 523.230469 Z M 208.691406 381.925781 L 208.691406 426.886719 L 256.410156 426.886719 L 256.410156 396.457031 L 263.625 385.796875 L 263.625 430.460938 C 263.625 431.488281 263.257812 432.339844 262.53125 433.015625 C 261.851562 433.746094 261.003906 434.113281 259.980469 434.113281 L 205.046875 434.113281 C 204.027344 434.113281 203.179688 433.746094 202.496094 433.015625 C 201.820312 432.339844 201.476562 431.488281 201.476562 430.460938 L 201.476562 375.433594 C 201.476562 374.410156 201.820312 373.5625 202.496094 372.878906 C 203.179688 372.199219 204.027344 371.855469 205.046875 371.855469 L 209.929688 371.855469 C 209.246094 372.632812 208.71875 373.5625 208.324219 374.628906 C 207.453125 376.964844 207.5 379.253906 208.472656 381.492188 Z M 251.460938 371.855469 L 246.574219 379.082031 L 227.050781 379.082031 L 224.792969 374.046875 C 224.40625 373.21875 223.917969 372.488281 223.335938 371.855469 Z M 211.460938 282.8125 L 208.691406 282.8125 L 208.691406 330.621094 L 256.410156 330.621094 L 256.410156 300.546875 L 263.625 294.929688 L 263.625 334.195312 C 263.625 335.214844 263.257812 336.070312 262.53125 336.75 C 261.851562 337.480469 261.003906 337.84375 259.980469 337.84375 L 205.046875 337.84375 C 204.027344 337.84375 203.179688 337.480469 202.496094 336.75 C 201.820312 336.070312 201.476562 335.214844 201.476562 334.195312 L 201.476562 279.164062 C 201.476562 278.144531 201.820312 277.289062 202.496094 276.609375 C 203.179688 275.925781 204.027344 275.589844 205.046875 275.589844 L 210.660156 275.589844 Z M 263.625 192.75 L 263.625 237.347656 C 263.625 238.367188 263.257812 239.214844 262.53125 239.902344 C 261.851562 240.628906 261.003906 240.996094 259.980469 240.996094 L 205.046875 240.996094 C 204.027344 240.996094 203.179688 240.628906 202.496094 239.902344 C 201.820312 239.214844 201.476562 238.367188 201.476562 237.347656 L 201.476562 182.308594 C 201.476562 181.289062 201.820312 180.441406 202.496094 179.753906 C 203.179688 179.078125 204.027344 178.734375 205.046875 178.734375 L 210.003906 178.734375 C 209.277344 179.515625 208.71875 180.460938 208.324219 181.578125 C 207.453125 183.917969 207.5 186.203125 208.472656 188.445312 L 208.691406 188.878906 L 208.691406 233.765625 L 256.410156 233.765625 L 256.410156 203.40625 Z M 228.652344 275.589844 L 259.398438 275.589844 L 250.078125 282.8125 L 229.453125 282.8125 Z M 251.535156 178.734375 L 246.574219 185.960938 L 227.050781 185.960938 L 224.792969 181 C 224.355469 180.121094 223.847656 179.367188 223.261719 178.734375 L 251.535156 178.734375 "></path><path style=" stroke:none;fill-rule:evenodd;fill:rgb(23.139954%,38.038635%,46.269226%);fill-opacity:1;" d="M 386.023438 547.464844 L 385.882812 547.679688 C 385.101562 546.078125 384.863281 544.78125 385.152344 543.8125 L 385.152344 544.03125 C 385.734375 546.027344 386.023438 547.171875 386.023438 547.464844 Z M 410.871094 609.941406 C 410.921875 609.792969 410.988281 609.644531 411.089844 609.5 L 411.089844 609.460938 C 411.523438 607.179688 411.761719 605.878906 411.820312 605.5625 L 411.820312 605.488281 C 411.820312 599.84375 411.210938 593.25 410 585.707031 C 408.832031 578.554688 407.152344 570.574219 404.96875 561.769531 C 400.5 543.570312 398.269531 532.328125 398.269531 528.046875 C 398.269531 526.992188 398.410156 525.339844 398.707031 523.085938 C 399.011719 520.773438 399.472656 517.828125 400.089844 514.253906 C 400.476562 512.09375 400.804688 509.859375 401.074219 507.539062 C 401.675781 502.324219 401.984375 496.710938 401.984375 490.675781 C 401.984375 490.628906 401.984375 490.578125 401.984375 490.535156 C 401.980469 485.785156 401.859375 480.601562 401.621094 474.984375 C 401.394531 470.109375 401.074219 464.902344 400.667969 459.367188 C 399.554688 445.453125 398.707031 434.96875 398.121094 427.910156 C 398.207031 427.308594 398.289062 426.726562 398.375 426.15625 C 398.570312 424.785156 398.75 423.496094 398.921875 422.292969 C 401.257812 421.753906 403.5625 421.121094 405.84375 420.394531 C 414.011719 418.425781 420.535156 415.164062 425.40625 410.613281 C 427.296875 408.859375 428.9375 406.914062 430.324219 404.773438 C 430.375 406.59375 430.386719 408.539062 430.359375 410.613281 C 430.332031 412.414062 430.269531 414.316406 430.175781 416.304688 L 430.175781 495.570312 C 429.886719 496.738281 429.738281 500.289062 429.738281 506.226562 C 429.746094 506.636719 429.746094 507.070312 429.738281 507.539062 C 429.789062 511.074219 429.761719 516.253906 429.671875 523.085938 C 429.585938 528.441406 429.464844 534.816406 429.304688 542.207031 C 429.113281 560.011719 427.828125 581.132812 425.441406 605.5625 C 425.417969 605.824219 425.394531 606.089844 425.367188 606.359375 C 423.523438 607.238281 421.582031 607.96875 419.539062 608.550781 C 417.71875 609.054688 415.855469 609.433594 413.964844 609.683594 C 412.949219 609.804688 411.917969 609.890625 410.871094 609.941406 Z M 354.222656 201.652344 C 351.792969 197.464844 350.613281 193.570312 350.6875 189.972656 C 350.734375 188.660156 350.851562 187.375 351.050781 186.109375 C 352.101562 179.828125 355.207031 174.160156 360.382812 169.105469 C 366.597656 163.019531 373.832031 160.078125 382.089844 160.273438 C 390.253906 160.414062 396.980469 163.117188 402.273438 168.375 C 407.472656 173.484375 409.96875 178.519531 409.777344 183.480469 C 409.75 184.414062 409.714844 185.292969 409.667969 186.109375 C 409.453125 189.449219 409.054688 191.785156 408.46875 193.117188 C 408.03125 194.234375 407.664062 194.5 407.375 193.917969 C 407.179688 193.527344 407.011719 192.894531 406.863281 192.019531 C 406.542969 190.265625 405.546875 188.292969 403.875 186.109375 C 403.28125 185.332031 402.597656 184.527344 401.835938 183.703125 C 398.96875 180.582031 393.726562 180.460938 386.097656 183.335938 C 383.976562 184.117188 382.066406 185.042969 380.378906 186.109375 C 376.59375 188.480469 373.859375 191.542969 372.179688 195.304688 C 371.988281 195.109375 371.816406 194.886719 371.675781 194.648438 C 370.023438 192.847656 368.128906 191.730469 365.988281 191.289062 C 363.855469 190.902344 362.078125 191.335938 360.671875 192.601562 C 359.3125 193.917969 358.703125 195.617188 358.851562 197.710938 C 359.003906 199.101562 359.441406 200.417969 360.160156 201.652344 C 360.582031 202.359375 361.085938 203.042969 361.691406 203.699219 C 363.296875 205.5 365.140625 206.617188 367.230469 207.058594 C 367.808594 207.101562 368.394531 207.125 368.976562 207.125 C 368.300781 210.4375 367.808594 213.863281 367.519531 217.417969 C 366.308594 216.25 365.164062 215.109375 364.097656 213.992188 C 359.738281 209.621094 356.449219 205.511719 354.222656 201.652344 Z M 345.734375 628.253906 C 344.910156 629.960938 343.890625 631.25 342.675781 632.128906 C 341.609375 632.855469 340.347656 633.222656 338.890625 633.222656 C 333.738281 633.171875 329.925781 632.492188 327.449219 631.175781 C 326.769531 630.742188 326.085938 629.839844 325.410156 628.476562 C 324.972656 627.652344 324.585938 626.699219 324.242188 625.632812 C 323.078125 622.273438 321.984375 617.476562 320.964844 611.25 C 320.6875 609.398438 320.429688 607.5 320.203125 605.5625 C 318.976562 594.964844 318.558594 583.066406 318.925781 569.867188 C 319.261719 554.25 320.308594 540.113281 322.058594 527.464844 C 322.25 525.988281 322.5 524.53125 322.820312 523.085938 C 323.589844 519.75 324.722656 516.496094 326.210938 513.300781 C 327.113281 511.367188 327.996094 509.449219 328.871094 507.539062 C 329.328125 506.5625 329.777344 505.585938 330.21875 504.617188 C 332.347656 499.902344 333.753906 495.210938 334.445312 490.535156 C 335.195312 485.320312 335.050781 480.144531 334.003906 474.984375 C 333.960938 474.746094 333.914062 474.5 333.863281 474.253906 C 331.722656 464.234375 330.316406 452.484375 329.632812 439.003906 C 329.390625 434.777344 329.320312 430.496094 329.417969 426.15625 C 329.542969 421.054688 329.90625 415.871094 330.511719 410.613281 C 330.625 409.644531 330.742188 408.667969 330.875 407.695312 C 331.5625 408.703125 332.332031 409.671875 333.167969 410.613281 C 335.566406 413.300781 338.5625 415.710938 342.167969 417.839844 C 347.558594 421.003906 353.484375 423 359.945312 423.824219 C 370.679688 425.382812 381.289062 425.332031 391.785156 423.675781 C 391.660156 424.5 391.550781 425.324219 391.453125 426.15625 C 391.359375 427 391.273438 427.855469 391.199219 428.710938 C 389.984375 442.09375 387.339844 455.160156 383.257812 467.90625 C 382.507812 470.3125 381.703125 472.675781 380.855469 474.984375 C 380.832031 475.058594 380.804688 475.132812 380.78125 475.207031 C 378.921875 480.195312 377.171875 485.304688 375.535156 490.535156 C 373.796875 496.066406 372.179688 501.734375 370.691406 507.539062 C 370.125 509.734375 369.578125 511.945312 369.050781 514.179688 C 368.363281 517.21875 367.679688 520.191406 367.011719 523.085938 C 364.703125 533.21875 362.5625 542.492188 360.597656 550.890625 C 358.121094 561.792969 356.375 569.964844 355.355469 575.414062 C 354.429688 580.910156 353.171875 586.921875 351.566406 593.445312 C 350.699219 596.96875 349.941406 601.003906 349.304688 605.5625 C 348.765625 609.421875 348.304688 613.65625 347.921875 618.257812 C 347.535156 622.445312 346.804688 625.773438 345.734375 628.253906 Z M 577.789062 727.957031 C 574.632812 727.8125 571.519531 727.300781 568.464844 726.421875 C 566.761719 725.839844 565.039062 725.160156 563.289062 724.378906 C 560.957031 699.566406 559.648438 678.183594 559.355469 660.226562 C 559.015625 642.175781 558.871094 630.207031 558.917969 624.316406 C 558.917969 618.28125 558.769531 614.707031 558.480469 613.589844 L 558.480469 534.25 C 558.285156 529.722656 558.265625 525.640625 558.40625 521.992188 C 560.496094 524.035156 563 525.878906 565.914062 527.535156 C 571.304688 530.75 577.230469 532.742188 583.691406 533.523438 C 585.484375 533.8125 587.332031 534.035156 589.226562 534.175781 C 589.570312 538.511719 590.003906 542.429688 590.539062 545.929688 C 589.957031 553.035156 589.109375 563.496094 587.988281 577.3125 C 587.164062 589.28125 586.746094 599.746094 586.746094 608.699219 C 586.746094 617.359375 587.355469 625.214844 588.566406 632.269531 C 589.78125 639.277344 590.390625 643.925781 590.390625 646.210938 C 590.390625 650.394531 588.160156 661.589844 583.691406 679.785156 C 581.355469 688.980469 579.65625 697.277344 578.589844 704.675781 C 577.421875 711.875 576.84375 718.152344 576.84375 723.503906 C 576.84375 723.652344 577.085938 725.035156 577.570312 727.664062 C 577.664062 727.714844 577.742188 727.8125 577.789062 727.957031 Z M 624.632812 531.546875 C 638.527344 580.984375 649.3125 630.546875 656.984375 680.222656 C 658.199219 688.207031 659.34375 696.183594 660.40625 704.160156 C 659.386719 704.210938 658.339844 704.285156 657.277344 704.382812 C 655.773438 704.429688 654.4375 704.0625 653.269531 703.289062 C 652.339844 702.605469 651.523438 701.710938 650.792969 700.585938 C 649.335938 698.15625 648.265625 694.554688 647.582031 689.785156 C 646.320312 679.761719 644.742188 671.5625 642.847656 665.1875 C 640.957031 658.671875 639.425781 652.683594 638.257812 647.230469 C 636.996094 641.832031 634.90625 633.757812 631.992188 623.003906 C 629.027344 612.347656 625.65625 600.28125 621.867188 586.800781 C 619.289062 577.460938 616.402344 568.503906 613.199219 559.945312 C 613.925781 557.996094 614.65625 556.050781 615.382812 554.105469 C 616.253906 551.960938 617.128906 549.824219 618.007812 547.679688 C 620.285156 542.230469 621.628906 537.074219 622.015625 532.210938 C 622.789062 532.011719 623.660156 531.792969 624.632812 531.546875 Z M 603.578125 661.828125 C 603.824219 662.804688 603.554688 664.070312 602.773438 665.625 L 602.707031 665.410156 C 602.753906 665.113281 603.046875 663.996094 603.578125 662.050781 Z M 625.65625 326.753906 C 625.019531 326.992188 624.269531 327.285156 623.398438 327.625 C 621.457031 328.453125 618.996094 329.621094 616.039062 331.132812 C 611.035156 333.613281 607.339844 332.957031 604.960938 329.160156 C 603.800781 327.3125 602.996094 324.707031 602.558594 321.347656 C 604.648438 320.863281 606.46875 319.746094 608.023438 317.996094 C 609.675781 316.195312 610.574219 314.199219 610.722656 312.007812 C 610.910156 309.914062 610.335938 308.210938 608.96875 306.898438 C 607.511719 305.632812 605.742188 305.195312 603.652344 305.589844 C 603.164062 305.632812 602.65625 305.78125 602.121094 306.019531 C 602.070312 297.753906 599.71875 293.980469 595.058594 294.707031 C 592.089844 295.148438 589.933594 294.761719 588.566406 293.546875 C 587.652344 292.570312 587.109375 291.183594 586.96875 289.382812 C 584.78125 285.441406 586.796875 281.136719 593.011719 276.460938 C 599.234375 271.746094 606.691406 269.96875 615.382812 271.136719 C 623.976562 272.207031 630.78125 276.074219 635.78125 282.738281 C 640.683594 289.261719 642.753906 296.195312 641.976562 303.542969 C 641.203125 310.839844 638.960938 316.3125 635.269531 319.964844 C 631.578125 323.664062 628.664062 325.824219 626.527344 326.457031 C 626.238281 326.507812 625.949219 326.605469 625.65625 326.753906 "></path><path style=" stroke:none;fill-rule:evenodd;fill:rgb(96.078491%,51.368713%,24.308777%);fill-opacity:1;" d="M 432.144531 401.492188 C 433.070312 399.6875 433.867188 397.765625 434.546875 395.726562 C 437.410156 396.457031 439.796875 396.964844 441.691406 397.253906 C 444.949219 397.691406 447.613281 397.476562 449.707031 396.597656 L 449.707031 398.863281 C 449.707031 400.613281 448.828125 402.09375 447.082031 403.316406 C 445.425781 404.625 443.394531 405.332031 440.964844 405.429688 C 438.480469 405.476562 436.296875 404.917969 434.40625 403.753906 C 433.335938 403.121094 432.585938 402.363281 432.144531 401.492188 Z M 402.417969 207.488281 L 390.03125 209.976562 C 390.082031 210.996094 390.371094 211.871094 390.90625 212.597656 C 391.347656 213.230469 391.902344 213.769531 392.582031 214.207031 C 396.128906 216.398438 398.96875 215.421875 401.109375 211.289062 C 401.738281 210.074219 402.179688 208.808594 402.417969 207.488281 Z M 491.597656 394.558594 L 490.648438 394.191406 L 481.398438 390.683594 C 480.683594 392.015625 479.640625 393.109375 478.261719 393.96875 C 478.136719 394.050781 478.011719 394.125 477.898438 394.191406 C 475.816406 395.320312 473.628906 395.589844 471.339844 394.996094 L 468.101562 394.191406 L 454.511719 390.832031 C 455.609375 387.898438 456.742188 383.832031 457.902344 378.644531 C 458.273438 376.960938 458.648438 375.164062 459.03125 373.242188 L 470.867188 376.164062 C 471.785156 374.242188 473.277344 372.78125 475.347656 371.78125 C 477.578125 370.761719 479.867188 370.6875 482.195312 371.566406 L 496.914062 377.113281 C 496.703125 377.632812 496.496094 378.148438 496.296875 378.644531 C 493.664062 385.210938 492.152344 390.074219 491.742188 393.238281 C 491.671875 393.558594 491.621094 393.871094 491.597656 394.191406 C 491.597656 394.3125 491.597656 394.429688 491.597656 394.558594 Z M 367.808594 217.855469 C 367.1875 217.332031 366.585938 216.773438 365.988281 216.179688 C 365.3125 215.449219 364.679688 214.71875 364.097656 213.992188 C 365.164062 215.109375 366.308594 216.25 367.519531 217.417969 C 367.808594 213.863281 368.300781 210.4375 368.976562 207.125 C 368.394531 207.125 367.808594 207.101562 367.230469 207.058594 C 365.140625 206.617188 363.296875 205.5 361.691406 203.699219 C 361.085938 203.042969 360.582031 202.359375 360.160156 201.652344 C 359.441406 200.417969 359.003906 199.101562 358.851562 197.710938 C 358.703125 195.617188 359.3125 193.917969 360.671875 192.601562 C 362.078125 191.335938 363.855469 190.902344 365.988281 191.289062 C 368.128906 191.730469 370.023438 192.847656 371.675781 194.648438 C 371.816406 194.886719 371.988281 195.109375 372.179688 195.304688 C 373.859375 191.542969 376.59375 188.480469 380.378906 186.109375 C 382.066406 185.042969 383.976562 184.117188 386.097656 183.335938 C 393.726562 180.460938 398.96875 180.582031 401.835938 183.703125 C 402.597656 184.527344 403.28125 185.332031 403.875 186.109375 C 405.546875 188.292969 406.542969 190.265625 406.863281 192.019531 C 407.011719 192.894531 407.179688 193.527344 407.375 193.917969 C 407.664062 195.476562 407.8125 197.128906 407.8125 198.878906 C 407.8125 199.828125 407.761719 200.75 407.664062 201.652344 C 407.097656 207.234375 404.769531 212.074219 400.667969 216.179688 C 400.078125 216.765625 399.464844 217.332031 398.8125 217.855469 C 398.65625 217.980469 398.496094 218.101562 398.339844 218.222656 C 396.253906 219.925781 393.992188 221.214844 391.5625 222.085938 C 391.316406 222.136719 391.101562 222.210938 390.90625 222.308594 L 390.90625 233.621094 C 390.90625 236.050781 390.03125 238.144531 388.285156 239.902344 C 386.484375 241.695312 384.351562 242.597656 381.875 242.597656 C 379.347656 242.597656 377.214844 241.695312 375.460938 239.902344 C 373.667969 238.144531 372.769531 236.050781 372.769531 233.621094 L 372.769531 221.066406 C 371.007812 220.207031 369.359375 219.132812 367.808594 217.855469 Z M 410.871094 609.941406 C 411.917969 609.890625 412.949219 609.804688 413.964844 609.683594 C 415.855469 609.433594 417.71875 609.054688 419.539062 608.550781 C 419.539062 608.960938 419.515625 609.460938 419.46875 610.046875 C 419.46875 610.078125 419.46875 610.117188 419.46875 610.15625 C 419.378906 610.933594 419.292969 611.855469 419.214844 612.929688 C 419.152344 613.628906 419.089844 614.382812 419.03125 615.191406 C 417.425781 620.398438 413.617188 622.78125 407.589844 622.347656 C 403.753906 622.152344 401.6875 619.234375 401.398438 613.589844 C 401.398438 613.003906 401.449219 612.445312 401.546875 611.90625 C 401.5625 611.621094 401.585938 611.34375 401.621094 611.070312 C 401.65625 610.601562 401.699219 610.152344 401.761719 609.71875 C 402.394531 609.816406 403.175781 609.792969 404.097656 609.644531 C 406.378906 609.941406 408.636719 610.039062 410.871094 609.941406 Z M 342.675781 632.128906 C 342.53125 633.4375 342.359375 635.21875 342.167969 637.453125 C 340.316406 642.5625 336.4375 644.824219 330.511719 644.242188 C 326.769531 643.804688 324.824219 640.789062 324.683594 635.1875 C 324.972656 632.269531 325.214844 630.035156 325.410156 628.476562 C 326.085938 629.839844 326.769531 630.742188 327.449219 631.175781 C 329.925781 632.492188 333.738281 633.171875 338.890625 633.222656 C 340.347656 633.222656 341.609375 632.855469 342.675781 632.128906 Z M 545.441406 502.503906 C 545.683594 506.882812 548.109375 511.066406 552.726562 515.058594 C 552.96875 515.253906 553.1875 515.421875 553.378906 515.566406 C 553.574219 515.714844 553.765625 515.84375 553.960938 515.96875 C 554.757812 516.464844 555.582031 516.796875 556.441406 516.953125 L 555.128906 518.195312 L 553.960938 519.289062 L 547.769531 525.054688 C 546.503906 526.222656 544.832031 526.535156 542.742188 526.007812 C 540.703125 525.515625 538.835938 524.347656 537.136719 522.5 C 535.433594 520.699219 534.410156 518.753906 534.074219 516.660156 C 533.78125 514.566406 534.242188 512.9375 535.457031 511.773438 Z M 577.789062 727.957031 C 580.070312 728.050781 582.328125 727.984375 584.5625 727.738281 C 585.042969 727.835938 585.5625 727.882812 586.09375 727.882812 C 585.949219 729.148438 585.726562 731.238281 585.4375 734.160156 C 585.289062 734.597656 585.101562 735.039062 584.855469 735.476562 C 582.914062 739.609375 579.214844 741.414062 573.78125 740.875 C 570.039062 740.4375 568.101562 737.445312 567.953125 731.894531 C 568.101562 730.4375 568.242188 729.199219 568.390625 728.179688 C 568.390625 727.546875 568.414062 726.957031 568.464844 726.421875 C 571.519531 727.300781 574.632812 727.8125 577.789062 727.957031 Z M 653.269531 703.289062 C 654.4375 704.0625 655.773438 704.429688 657.277344 704.382812 C 658.339844 704.285156 659.386719 704.210938 660.40625 704.160156 C 664.050781 703.628906 666.769531 702.828125 668.570312 701.753906 C 669.296875 701.316406 669.980469 700.414062 670.605469 699.050781 C 670.753906 700.5625 671.015625 702.847656 671.410156 705.917969 C 671.410156 705.960938 671.410156 706.035156 671.410156 706.132812 C 671.3125 711.824219 669.394531 714.890625 665.65625 715.332031 C 659.722656 716.0625 655.820312 713.847656 653.921875 708.6875 C 653.632812 706.402344 653.410156 704.601562 653.269531 703.289062 Z M 596.945312 331.566406 L 596.945312 330.402344 C 594.667969 329.234375 592.597656 327.699219 590.753906 325.800781 C 585.898438 321.035156 583.46875 315.269531 583.46875 308.507812 C 583.46875 302.765625 585.171875 297.777344 588.566406 293.546875 C 589.933594 294.761719 592.089844 295.148438 595.058594 294.707031 C 599.71875 293.980469 602.070312 297.753906 602.121094 306.019531 C 602.65625 305.78125 603.164062 305.632812 603.652344 305.589844 C 605.742188 305.195312 607.511719 305.632812 608.96875 306.898438 C 610.335938 308.210938 610.910156 309.914062 610.722656 312.007812 C 610.574219 314.199219 609.675781 316.195312 608.023438 317.996094 C 606.46875 319.746094 604.648438 320.863281 602.558594 321.347656 C 602.996094 324.707031 603.800781 327.3125 604.960938 329.160156 C 607.339844 332.957031 611.035156 333.613281 616.039062 331.132812 C 618.996094 329.621094 621.457031 328.453125 623.398438 327.625 C 621.011719 329.523438 618.492188 330.910156 615.820312 331.789062 C 615.523438 331.886719 615.261719 331.960938 615.019531 332.003906 L 615.019531 342.878906 C 615.019531 345.367188 614.171875 347.453125 612.46875 349.15625 C 610.617188 351.003906 608.484375 351.933594 606.054688 351.933594 C 603.527344 351.933594 601.390625 351.003906 599.644531 349.15625 C 597.851562 347.453125 596.945312 345.367188 596.945312 342.878906 L 596.945312 331.566406 "></path><path style=" stroke:none;fill-rule:evenodd;fill:rgb(27.449036%,76.858521%,77.648926%);fill-opacity:1;" d="M 398.921875 422.292969 C 396.542969 422.875 394.164062 423.335938 391.785156 423.675781 C 381.289062 425.332031 370.679688 425.382812 359.945312 423.824219 C 353.484375 423 347.558594 421.003906 342.167969 417.839844 C 338.5625 415.710938 335.566406 413.300781 333.167969 410.613281 C 332.332031 409.671875 331.5625 408.703125 330.875 407.695312 C 328.164062 403.765625 326.515625 399.265625 325.917969 394.191406 C 325.375 389.5 325.742188 384.316406 327.007812 378.644531 C 327.128906 378.140625 327.25 377.628906 327.375 377.113281 C 327.671875 372.832031 328.132812 368.230469 328.761719 363.316406 C 329.925781 354.414062 330.875 346.140625 331.601562 338.5 C 332.621094 343.074219 333.886719 347.652344 335.386719 352.226562 C 337.476562 358.546875 341.972656 363.730469 348.867188 367.769531 C 352.511719 369.863281 356.785156 371.707031 361.691406 373.316406 C 367.421875 375.003906 373.324219 376.777344 379.398438 378.644531 C 388.535156 381.460938 398.050781 384.476562 407.957031 387.699219 C 416.238281 390.410156 423.222656 392.578125 428.902344 394.191406 C 430.949219 394.773438 432.835938 395.285156 434.546875 395.726562 C 433.867188 397.765625 433.070312 399.6875 432.144531 401.492188 C 431.558594 402.558594 430.949219 403.652344 430.324219 404.773438 C 428.9375 406.914062 427.296875 408.859375 425.40625 410.613281 C 420.535156 415.164062 414.011719 418.425781 405.84375 420.394531 C 403.5625 421.121094 401.257812 421.753906 398.921875 422.292969 Z M 398.339844 218.222656 C 402.417969 218.371094 406.253906 219.023438 409.851562 220.195312 C 411.457031 220.722656 413.054688 221.359375 414.660156 222.085938 C 417.519531 223.421875 420.066406 227.191406 422.3125 233.398438 C 425.953125 243.445312 428.792969 259.867188 430.832031 282.664062 C 431.269531 287.558594 431.675781 292.742188 432.039062 298.214844 C 432.378906 303.445312 432.699219 308.941406 432.984375 314.710938 C 433.210938 319.6875 433.414062 324.871094 433.605469 330.253906 C 433.910156 338.648438 434.15625 347.527344 434.332031 356.894531 C 434.382812 358.9375 434.453125 360.984375 434.546875 363.023438 C 418.328125 357.722656 405.695312 352.171875 396.664062 346.386719 C 388.398438 341.050781 382.6875 335.667969 379.542969 330.253906 C 377.632812 326.980469 376.667969 323.699219 376.625 320.402344 C 376.625 318.496094 376.648438 316.605469 376.699219 314.710938 C 376.847656 309.175781 377.214844 303.671875 377.792969 298.214844 C 377.949219 296.75 378.117188 295.289062 378.304688 293.835938 C 378.765625 289.964844 378.734375 286.242188 378.191406 282.664062 C 377.480469 278.011719 375.910156 273.609375 373.496094 269.460938 C 369.171875 262.058594 362.878906 258.558594 354.628906 258.945312 C 354.480469 258.945312 354.332031 258.898438 354.1875 258.804688 C 345.78125 259.191406 340.390625 261.527344 338.011719 265.8125 C 338.011719 265.855469 337.9375 265.929688 337.796875 266.027344 C 337.601562 266.222656 337.378906 266.4375 337.140625 266.683594 C 336.265625 268.96875 335.460938 271.308594 334.734375 273.691406 C 335.996094 261.820312 338.398438 252.429688 341.945312 245.515625 C 344.25 241.097656 347.882812 237.054688 352.839844 233.398438 C 358.023438 229.574219 364.667969 226.171875 372.769531 223.183594 L 372.769531 225.007812 C 368.976562 226.519531 365.792969 228.511719 363.222656 230.992188 C 362.378906 231.796875 361.640625 232.597656 361.003906 233.398438 C 358.582031 236.503906 357.71875 239.617188 358.414062 242.746094 C 359.386719 246.632812 362.539062 249.457031 367.882812 251.214844 C 373.175781 252.964844 379.101562 253.0625 385.660156 251.503906 C 392.269531 249.949219 397.585938 247.246094 401.621094 243.402344 C 405.035156 240.105469 406.652344 236.769531 406.464844 233.398438 C 406.425781 232.847656 406.339844 232.28125 406.207031 231.722656 C 405.332031 227.828125 402.246094 224.984375 396.953125 223.183594 C 395.207031 222.644531 393.40625 222.28125 391.5625 222.085938 C 393.992188 221.214844 396.253906 219.925781 398.339844 218.222656 Z M 589.226562 534.175781 C 587.332031 534.035156 585.484375 533.8125 583.691406 533.523438 C 577.230469 532.742188 571.304688 530.75 565.914062 527.535156 C 563 525.878906 560.496094 524.035156 558.40625 521.992188 C 557.148438 520.773438 556.054688 519.507812 555.128906 518.195312 L 556.441406 516.953125 C 561.730469 518.121094 568.554688 513.597656 576.910156 503.378906 C 587.355469 490.773438 594.5 477.664062 598.335938 464.035156 C 602.070312 450.316406 604.351562 441.871094 605.183594 438.714844 C 605.808594 436.332031 606.417969 433.820312 607.003906 431.191406 C 607.390625 429.25 607.753906 427.273438 608.097656 425.285156 C 608.535156 423.191406 608.824219 421.101562 608.96875 419.007812 C 609.214844 416.183594 609.285156 413.363281 609.191406 410.539062 C 608.847656 401.585938 606.394531 393.292969 601.832031 385.652344 C 589.347656 364.582031 576.867188 364.605469 564.382812 385.722656 C 563.507812 387.765625 562.851562 389.761719 562.414062 391.710938 C 562.167969 392.875 562.027344 394 561.976562 395.066406 C 561.882812 395.308594 561.832031 395.527344 561.832031 395.726562 C 561.832031 396.257812 561.832031 396.769531 561.832031 397.253906 C 561.789062 398.179688 561.832031 399.054688 561.976562 399.882812 C 561.882812 400.171875 561.882812 400.417969 561.976562 400.613281 C 562.316406 403.726562 562.5625 406.816406 562.703125 409.882812 C 564.515625 434.652344 561.597656 457.96875 553.960938 479.84375 C 552.976562 482.675781 551.90625 485.480469 550.757812 488.269531 C 550.859375 487.785156 550.976562 487.324219 551.121094 486.882812 C 551.410156 482.601562 551.878906 478 552.503906 473.089844 C 553.03125 469.007812 553.523438 465.0625 553.960938 461.265625 C 555.769531 445.835938 556.886719 432.773438 557.3125 422.070312 C 557.359375 420.175781 557.386719 418.324219 557.386719 416.527344 C 557.535156 408.984375 557.675781 402.050781 557.824219 395.726562 C 557.824219 395.578125 557.875 394.601562 557.96875 392.804688 C 558.019531 391.734375 558.160156 389.617188 558.40625 386.453125 C 558.554688 384.214844 558.769531 381.441406 559.0625 378.136719 C 559.699219 370.152344 562.441406 361.808594 567.296875 353.097656 C 571.914062 344.636719 581.792969 337.457031 596.945312 331.566406 L 596.945312 334.707031 C 593.160156 336.167969 589.933594 338.164062 587.257812 340.691406 C 583.222656 344.636719 581.625 348.546875 582.449219 352.441406 C 583.421875 356.382812 586.574219 359.203125 591.921875 360.910156 C 597.21875 362.660156 603.140625 362.78125 609.695312 361.273438 C 616.304688 359.667969 621.628906 356.941406 625.65625 353.097656 C 629.640625 349.253906 631.167969 345.386719 630.246094 341.492188 C 629.367188 337.554688 626.285156 334.679688 620.988281 332.882812 C 619.34375 332.347656 617.621094 331.984375 615.820312 331.789062 C 618.492188 330.910156 621.011719 329.523438 623.398438 327.625 C 624.269531 327.285156 625.019531 326.992188 625.65625 326.753906 C 629.878906 327.1875 633.84375 328.28125 637.53125 330.039062 C 638.109375 330.328125 638.699219 330.621094 639.277344 330.910156 C 646.125 334.707031 651.179688 354.167969 654.4375 389.300781 C 656.28125 409.734375 657.492188 435.527344 658.078125 466.664062 C 658.167969 473.917969 658.421875 480.65625 658.808594 486.882812 C 659.878906 490.578125 660.160156 494.378906 659.679688 498.273438 C 659.292969 500.894531 658.785156 503.378906 658.148438 505.710938 C 654.257812 518.3125 644.742188 526.46875 629.589844 530.164062 C 627.933594 530.652344 626.285156 531.117188 624.632812 531.546875 C 623.660156 531.792969 622.789062 532.011719 622.015625 532.210938 C 611.226562 534.59375 600.300781 535.25 589.226562 534.175781 "></path><path style=" stroke:none;fill-rule:evenodd;fill:rgb(18.429565%,58.428955%,59.21936%);fill-opacity:1;" d="M 556.441406 516.953125 C 555.582031 516.796875 554.757812 516.464844 553.960938 515.96875 C 553.765625 515.84375 553.574219 515.714844 553.378906 515.566406 C 553.1875 515.421875 552.96875 515.253906 552.726562 515.058594 C 548.109375 511.066406 545.683594 506.882812 545.441406 502.503906 C 545.394531 501.578125 545.441406 500.65625 545.582031 499.730469 C 547.476562 495.933594 549.203125 492.113281 550.757812 488.269531 C 551.90625 485.480469 552.976562 482.675781 553.960938 479.84375 C 561.597656 457.96875 564.515625 434.652344 562.703125 409.882812 C 562.5625 406.816406 562.316406 403.726562 561.976562 400.613281 C 561.882812 400.417969 561.882812 400.171875 561.976562 399.882812 C 561.832031 399.054688 561.789062 398.179688 561.832031 397.253906 C 561.832031 396.769531 561.832031 396.257812 561.832031 395.726562 C 561.832031 395.527344 561.882812 395.308594 561.976562 395.066406 C 562.027344 394 562.167969 392.875 562.414062 391.710938 C 562.851562 389.761719 563.507812 387.765625 564.382812 385.722656 C 576.867188 364.605469 589.347656 364.582031 601.832031 385.652344 C 606.394531 393.292969 608.847656 401.585938 609.191406 410.539062 C 609.285156 413.363281 609.214844 416.183594 608.96875 419.007812 C 608.824219 421.101562 608.535156 423.191406 608.097656 425.285156 C 607.753906 427.273438 607.390625 429.25 607.003906 431.191406 C 606.417969 433.820312 605.808594 436.332031 605.183594 438.714844 C 604.351562 441.871094 602.070312 450.316406 598.335938 464.035156 C 594.5 477.664062 587.355469 490.773438 576.910156 503.378906 C 568.554688 513.597656 561.730469 518.121094 556.441406 516.953125 Z M 429.886719 233.398438 C 430.382812 234.546875 430.871094 235.761719 431.34375 237.050781 C 433.484375 245.761719 434.941406 254.640625 435.714844 263.691406 C 436.226562 270.03125 436.945312 276.355469 437.867188 282.664062 C 438.355469 285.957031 438.902344 289.242188 439.507812 292.519531 C 439.820312 294.417969 440.136719 296.316406 440.449219 298.214844 C 441.375 303.710938 442.296875 309.207031 443.21875 314.710938 C 444.078125 319.894531 444.941406 325.070312 445.808594 330.253906 C 447.890625 342.914062 449.960938 355.5625 452.035156 368.207031 C 454.464844 368.886719 456.992188 369.546875 459.609375 370.179688 C 459.367188 371.246094 459.175781 372.269531 459.03125 373.242188 C 458.648438 375.164062 458.273438 376.960938 457.902344 378.644531 C 456.742188 383.832031 455.609375 387.898438 454.511719 390.832031 C 454.21875 391.5625 453.929688 392.21875 453.640625 392.804688 C 453.394531 393.308594 453.109375 393.769531 452.800781 394.191406 C 451.996094 395.269531 450.964844 396.074219 449.707031 396.597656 C 447.613281 397.476562 444.949219 397.691406 441.691406 397.253906 C 439.796875 396.964844 437.410156 396.457031 434.546875 395.726562 C 432.835938 395.285156 430.949219 394.773438 428.902344 394.191406 C 423.222656 392.578125 416.238281 390.410156 407.957031 387.699219 C 398.050781 384.476562 388.535156 381.460938 379.398438 378.644531 C 373.324219 376.777344 367.421875 375.003906 361.691406 373.316406 C 356.785156 371.707031 352.511719 369.863281 348.867188 367.769531 C 341.972656 363.730469 337.476562 358.546875 335.386719 352.226562 C 333.886719 347.652344 332.621094 343.074219 331.601562 338.5 C 331 335.75 330.492188 333.003906 330.070312 330.253906 C 329.296875 325.070312 328.847656 319.890625 328.722656 314.710938 C 328.609375 309.207031 328.867188 303.710938 329.492188 298.214844 C 330.078125 293.03125 331 287.847656 332.257812 282.664062 C 332.96875 279.679688 333.792969 276.683594 334.734375 273.691406 C 335.460938 271.308594 336.265625 268.96875 337.140625 266.683594 C 337.378906 266.4375 337.601562 266.222656 337.796875 266.027344 C 337.9375 265.929688 338.011719 265.855469 338.011719 265.8125 C 340.390625 261.527344 345.78125 259.191406 354.1875 258.804688 C 354.332031 258.898438 354.480469 258.945312 354.628906 258.945312 C 362.878906 258.558594 369.171875 262.058594 373.496094 269.460938 C 375.910156 273.609375 377.480469 278.011719 378.191406 282.664062 C 378.734375 286.242188 378.765625 289.964844 378.304688 293.835938 C 378.117188 295.289062 377.949219 296.75 377.792969 298.214844 C 377.214844 303.671875 376.847656 309.175781 376.699219 314.710938 C 376.648438 316.605469 376.625 318.496094 376.625 320.402344 C 376.667969 323.699219 377.632812 326.980469 379.542969 330.253906 C 382.6875 335.667969 388.398438 341.050781 396.664062 346.386719 C 405.695312 352.171875 418.328125 357.722656 434.546875 363.023438 C 434.453125 360.984375 434.382812 358.9375 434.332031 356.894531 C 434.15625 347.527344 433.910156 338.648438 433.605469 330.253906 C 433.414062 324.871094 433.210938 319.6875 432.984375 314.710938 C 432.699219 308.941406 432.378906 303.445312 432.039062 298.214844 C 431.675781 292.742188 431.269531 287.558594 430.832031 282.664062 C 428.792969 259.867188 425.953125 243.445312 422.3125 233.398438 C 420.066406 227.191406 417.519531 223.421875 414.660156 222.085938 C 413.054688 221.359375 411.457031 220.722656 409.851562 220.195312 C 412.421875 219.265625 415.410156 219.339844 418.808594 220.410156 C 422.976562 221.675781 426.664062 226.003906 429.886719 233.398438 Z M 654.4375 389.300781 C 651.179688 354.167969 646.125 334.707031 639.277344 330.910156 C 638.699219 330.621094 638.109375 330.328125 637.53125 330.039062 C 638.839844 330.039062 640.230469 330.105469 641.6875 330.253906 C 652.613281 331.46875 657.804688 343.90625 657.277344 367.550781 C 657.078125 375.675781 656.136719 382.925781 654.4375 389.300781 Z M 558.40625 386.453125 C 558.160156 389.617188 558.019531 391.734375 557.96875 392.804688 C 557.875 394.601562 557.824219 395.578125 557.824219 395.726562 C 557.675781 402.050781 557.535156 408.984375 557.386719 416.527344 C 557.386719 418.324219 557.359375 420.175781 557.3125 422.070312 C 556.21875 421.738281 555.105469 421.402344 553.960938 421.046875 C 547.535156 419.136719 540.324219 417.046875 532.324219 414.769531 C 515.761719 410.003906 504.664062 406.308594 499.027344 403.679688 C 494.03125 401.34375 491.546875 398.304688 491.597656 394.558594 C 491.597656 394.429688 491.597656 394.3125 491.597656 394.191406 C 491.621094 393.871094 491.671875 393.558594 491.742188 393.238281 C 492.152344 390.074219 493.664062 385.210938 496.296875 378.644531 C 496.496094 378.148438 496.703125 377.632812 496.914062 377.113281 C 497.644531 375.3125 498.445312 373.363281 499.316406 371.277344 C 521.328125 379.148438 539.542969 384.042969 553.960938 385.941406 C 555.484375 386.148438 556.972656 386.316406 558.40625 386.453125 "></path><g clip-path="url(#clip3)" clip-rule="nonzero"><path style=" stroke:none;fill-rule:evenodd;fill:rgb(9.408569%,25.099182%,34.509277%);fill-opacity:1;" d="M 386.023438 547.464844 C 386.023438 547.171875 385.734375 546.027344 385.152344 544.03125 L 385.152344 543.8125 C 384.863281 544.78125 385.101562 546.078125 385.882812 547.679688 Z M 398.921875 422.292969 C 398.75 423.496094 398.570312 424.785156 398.375 426.15625 C 398.289062 426.726562 398.207031 427.308594 398.121094 427.910156 C 398.707031 434.96875 399.554688 445.453125 400.667969 459.367188 C 401.074219 464.902344 401.394531 470.109375 401.621094 474.984375 C 401.859375 480.601562 401.980469 485.785156 401.984375 490.535156 C 401.984375 490.578125 401.984375 490.628906 401.984375 490.675781 C 401.984375 496.710938 401.675781 502.324219 401.074219 507.539062 C 400.804688 509.859375 400.476562 512.09375 400.089844 514.253906 C 399.472656 517.828125 399.011719 520.773438 398.707031 523.085938 C 398.410156 525.339844 398.269531 526.992188 398.269531 528.046875 C 398.269531 532.328125 400.5 543.570312 404.96875 561.769531 C 407.152344 570.574219 408.832031 578.554688 410 585.707031 C 411.210938 593.25 411.820312 599.84375 411.820312 605.488281 L 411.820312 605.5625 C 411.761719 605.878906 411.523438 607.179688 411.089844 609.460938 L 411.089844 609.5 C 410.988281 609.644531 410.921875 609.792969 410.871094 609.941406 C 408.636719 610.039062 406.378906 609.941406 404.097656 609.644531 C 403.175781 609.792969 402.394531 609.816406 401.761719 609.71875 C 400.785156 609.550781 399.941406 609.1875 399.253906 608.625 C 398.710938 608.191406 398.261719 607.632812 397.902344 606.945312 C 397.652344 606.484375 397.410156 606.023438 397.175781 605.5625 C 394.839844 601.003906 393.191406 596.214844 392.21875 591.179688 C 389.0625 574.929688 385.519531 558.679688 381.585938 542.429688 C 379.960938 535.929688 379.125 529.484375 379.070312 523.085938 C 379.035156 517.871094 379.523438 512.6875 380.527344 507.539062 C 381.300781 503.476562 382.402344 499.441406 383.839844 495.421875 C 384.425781 493.800781 384.878906 492.171875 385.226562 490.535156 C 386.183594 485.871094 386.15625 481.125 385.152344 476.300781 C 385.0625 475.863281 384.964844 475.421875 384.863281 474.984375 C 384.367188 472.605469 383.832031 470.25 383.257812 467.90625 C 387.339844 455.160156 389.984375 442.09375 391.199219 428.710938 C 391.273438 427.855469 391.359375 427 391.453125 426.15625 C 391.550781 425.324219 391.660156 424.5 391.785156 423.675781 C 394.164062 423.335938 396.542969 422.875 398.921875 422.292969 Z M 324.242188 625.632812 C 324.585938 626.699219 324.972656 627.652344 325.410156 628.476562 C 325.214844 630.035156 324.972656 632.269531 324.683594 635.1875 C 324.824219 640.789062 326.769531 643.804688 330.511719 644.242188 C 336.4375 644.824219 340.316406 642.5625 342.167969 637.453125 C 342.359375 635.21875 342.53125 633.4375 342.675781 632.128906 C 343.890625 631.25 344.910156 629.960938 345.734375 628.253906 C 346.316406 631.226562 346.175781 634.925781 345.296875 639.351562 C 344.425781 648.839844 342.308594 657.964844 338.960938 666.722656 C 335.074219 676.9375 328.785156 679.375 320.089844 674.019531 C 317.417969 672.558594 315.9375 670.347656 315.648438 667.378906 C 313.894531 652.734375 316.765625 638.816406 324.242188 625.632812 Z M 419.46875 610.15625 C 421.167969 610.597656 422.816406 611.371094 424.421875 612.496094 C 424.816406 612.871094 425.21875 613.253906 425.625 613.625 C 430.164062 617.820312 435.203125 621.242188 440.742188 623.875 C 443.410156 625.191406 446.109375 626.601562 448.828125 628.113281 C 453.105469 630.300781 454.875 633.683594 454.144531 638.257812 C 454.101562 638.988281 453.804688 639.671875 453.273438 640.296875 C 452.835938 641.027344 452.300781 641.542969 451.671875 641.832031 C 450.359375 642.417969 449.097656 643 447.886719 643.582031 C 445.699219 644.65625 443.558594 645.308594 441.46875 645.554688 C 434.382812 646.285156 427.359375 645.921875 420.414062 644.460938 C 416.28125 643.730469 412.277344 642.320312 408.394531 640.230469 C 405.042969 638.375 401.664062 636.601562 398.269531 634.898438 C 397.34375 634.363281 396.664062 633.511719 396.222656 632.34375 C 394.960938 629.183594 394.527344 625.699219 394.914062 621.910156 C 394.960938 620.546875 395.132812 619.207031 395.425781 617.894531 C 395.957031 615.316406 397.5625 613.464844 400.230469 612.347656 C 400.667969 612.199219 401.109375 612.054688 401.546875 611.90625 C 401.449219 612.445312 401.398438 613.003906 401.398438 613.589844 C 401.6875 619.234375 403.753906 622.152344 407.589844 622.347656 C 413.617188 622.78125 417.425781 620.398438 419.03125 615.191406 C 419.089844 614.382812 419.152344 613.628906 419.214844 612.929688 C 419.292969 611.855469 419.378906 610.933594 419.46875 610.15625 Z M 568.390625 728.179688 C 568.242188 729.199219 568.101562 730.4375 567.953125 731.894531 C 568.101562 737.445312 570.039062 740.4375 573.78125 740.875 C 579.214844 741.414062 582.914062 739.609375 584.855469 735.476562 C 587.042969 737.421875 588.566406 739.925781 589.445312 742.992188 C 590.664062 747.324219 589.933594 751.339844 587.257812 755.035156 C 585.027344 758.246094 581.941406 759.488281 578.003906 758.757812 C 570.425781 757.296875 563.1875 754.667969 556.292969 750.871094 C 553.1875 749.171875 550.074219 747.445312 546.972656 745.695312 C 543.574219 743.746094 540.753906 741.316406 538.519531 738.394531 C 538.082031 737.808594 537.789062 737.203125 537.640625 736.570312 C 536.769531 731.3125 538.882812 727.351562 543.984375 724.671875 C 546.851562 724.625 549.765625 724.699219 552.726562 724.894531 C 558.070312 725.570312 563.289062 726.667969 568.390625 728.179688 Z M 589.226562 534.175781 C 600.300781 535.25 611.226562 534.59375 622.015625 532.210938 C 621.628906 537.074219 620.285156 542.230469 618.007812 547.679688 C 617.128906 549.824219 616.253906 551.960938 615.382812 554.105469 C 614.65625 556.050781 613.925781 557.996094 613.199219 559.945312 C 609.070312 571.183594 605.867188 582.667969 603.578125 594.390625 C 602.269531 600.863281 602.683594 607.261719 604.820312 613.589844 C 610.355469 628.917969 611.132812 644.535156 607.148438 660.441406 C 603.164062 676.695312 599.617188 692.921875 596.515625 709.128906 C 595.398438 714.722656 593.480469 720.023438 590.753906 725.035156 C 589.78125 726.933594 588.226562 727.882812 586.09375 727.882812 C 585.5625 727.882812 585.042969 727.835938 584.5625 727.738281 C 582.328125 727.984375 580.070312 728.050781 577.789062 727.957031 C 577.742188 727.8125 577.664062 727.714844 577.570312 727.664062 C 577.085938 725.035156 576.84375 723.652344 576.84375 723.503906 C 576.84375 718.152344 577.421875 711.875 578.589844 704.675781 C 579.65625 697.277344 581.355469 688.980469 583.691406 679.785156 C 588.160156 661.589844 590.390625 650.394531 590.390625 646.210938 C 590.390625 643.925781 589.78125 639.277344 588.566406 632.269531 C 587.355469 625.214844 586.746094 617.359375 586.746094 608.699219 C 586.746094 599.746094 587.164062 589.28125 587.988281 577.3125 C 589.109375 563.496094 589.957031 553.035156 590.539062 545.929688 C 590.003906 542.429688 589.570312 538.511719 589.226562 534.175781 Z M 650.792969 700.585938 C 651.523438 701.710938 652.339844 702.605469 653.269531 703.289062 C 653.410156 704.601562 653.632812 706.402344 653.921875 708.6875 C 655.820312 713.847656 659.722656 716.0625 665.65625 715.332031 C 669.394531 714.890625 671.3125 711.824219 671.410156 706.132812 C 671.410156 706.035156 671.410156 705.960938 671.410156 705.917969 C 673.5 707.765625 675.007812 710.609375 675.929688 714.453125 C 677.476562 720.632812 676.507812 725.257812 673.015625 728.320312 C 672.53125 728.714844 672.09375 729.101562 671.699219 729.488281 C 671.648438 729.390625 671.625 729.390625 671.625 729.488281 C 664.585938 730.121094 656.644531 729.511719 647.804688 727.664062 C 638.914062 725.625 632.765625 723.113281 629.367188 720.148438 C 626.699219 717.765625 624.199219 715.210938 621.867188 712.484375 C 619.441406 708.933594 617.933594 705.136719 617.347656 701.097656 C 617.101562 699.492188 617.621094 698.105469 618.878906 696.9375 C 621.597656 694.359375 624.808594 693.726562 628.496094 695.039062 C 635.835938 697.621094 643.261719 699.46875 650.792969 700.585938 Z M 603.578125 661.828125 L 603.578125 662.050781 C 603.046875 663.996094 602.753906 665.113281 602.707031 665.410156 L 602.773438 665.625 C 603.554688 664.070312 603.824219 662.804688 603.578125 661.828125 Z M 658.148438 505.710938 C 658.148438 507.074219 658.148438 508.4375 658.148438 509.800781 C 657.960938 523.28125 656.984375 535.128906 655.234375 545.347656 C 653.585938 555.417969 655.285156 565.441406 660.332031 575.414062 C 661.789062 578.386719 663.269531 581.230469 664.777344 583.957031 C 667.113281 588.382812 668.664062 593.027344 669.441406 597.898438 C 671.773438 610.5 673.445312 624.605469 674.472656 640.230469 C 675.585938 655.847656 675.511719 669.640625 674.25 681.609375 C 673.277344 689.980469 672.0625 695.796875 670.605469 699.050781 C 669.980469 700.414062 669.296875 701.316406 668.570312 701.753906 C 666.769531 702.828125 664.050781 703.628906 660.40625 704.160156 C 659.34375 696.183594 658.199219 688.207031 656.984375 680.222656 C 649.3125 630.546875 638.527344 580.984375 624.632812 531.546875 C 626.285156 531.117188 627.933594 530.652344 629.589844 530.164062 C 644.742188 526.46875 654.257812 518.3125 658.148438 505.710938 "></path></g></g></svg>